<svg width="154" height="154" viewBox="0 0 154 154" fill="none" xmlns="http://www.w3.org/2000/svg">
<path d="M12.8712 77.0004C12.8712 93.3377 19.3612 109.006 30.9134 120.558C42.4657 132.11 58.1339 138.6 74.4712 138.6C90.8085 138.6 106.477 132.11 118.029 120.558C129.581 109.006 136.071 93.3377 136.071 77.0004C136.071 60.6631 129.581 44.9949 118.029 33.4426C106.477 21.8904 90.8085 15.4004 74.4712 15.4004C58.1339 15.4004 42.4657 21.8904 30.9134 33.4426C19.3612 44.9949 12.8712 60.6631 12.8712 77.0004Z" fill="#6750A4" stroke="#DAEDF7" stroke-width="1.54" stroke-linecap="round" stroke-linejoin="round"/>
<path d="M102.924 115.876H45.6362C44.6102 115.876 43.6262 115.469 42.9008 114.743C42.1753 114.018 41.7677 113.034 41.7677 112.008V37.8276C41.7681 36.7582 42.1932 35.7327 42.9496 34.9767C43.7059 34.2206 44.7315 33.7959 45.801 33.7959H102.758C103.287 33.7957 103.812 33.8998 104.301 34.1024C104.791 34.3049 105.235 34.6018 105.61 34.9762C105.984 35.3506 106.281 35.7951 106.484 36.2844C106.687 36.7736 106.791 37.298 106.791 37.8276V112.008C106.791 113.034 106.384 114.017 105.659 114.743C104.933 115.468 103.95 115.876 102.924 115.876Z" fill="#DEBB7E"/>
<path d="M102.758 33.7959H45.7994C44.73 33.7959 43.7043 34.2206 42.948 34.9767C42.1916 35.7327 41.7665 36.7582 41.7661 37.8276V43.3901C41.7661 42.2591 42.2154 41.1745 43.0151 40.3748C43.8148 39.5751 44.8994 39.1258 46.0304 39.1258H102.527C103.658 39.1258 104.742 39.5751 105.542 40.3748C106.342 41.1745 106.791 42.2591 106.791 43.3901V37.8276C106.791 37.298 106.687 36.7736 106.484 36.2844C106.281 35.7951 105.984 35.3506 105.61 34.9762C105.235 34.6018 104.79 34.3049 104.301 34.1024C103.812 33.8998 103.287 33.7957 102.758 33.7959Z" fill="#F0D5A8"/>
<path d="M102.924 115.876H45.6362C44.6102 115.876 43.6262 115.469 42.9008 114.743C42.1753 114.018 41.7677 113.034 41.7677 112.008V37.8276C41.7681 36.7582 42.1932 35.7327 42.9496 34.9767C43.7059 34.2206 44.7315 33.7959 45.801 33.7959H102.758C103.287 33.7957 103.812 33.8998 104.301 34.1024C104.791 34.3049 105.235 34.6018 105.61 34.9762C105.984 35.3506 106.281 35.7951 106.484 36.2844C106.687 36.7736 106.791 37.298 106.791 37.8276V112.008C106.791 113.034 106.384 114.017 105.659 114.743C104.933 115.468 103.95 115.876 102.924 115.876Z" stroke="#45413C" stroke-width="1.54" stroke-linecap="round" stroke-linejoin="round"/>
<path d="M48.1617 40.1914H100.394V109.479H48.1617V40.1914Z" fill="white" stroke="#45413C" stroke-width="1.54" stroke-linecap="round" stroke-linejoin="round"/>
<path d="M55.6091 57.2471H88.1786" stroke="#45413C" stroke-width="1.54" stroke-linecap="round" stroke-linejoin="round"/>
<path d="M55.6091 66.8408H88.1786" stroke="#45413C" stroke-width="1.54" stroke-linecap="round" stroke-linejoin="round"/>
<path d="M55.6091 77.501H78.3087" stroke="#45413C" stroke-width="1.54" stroke-linecap="round" stroke-linejoin="round"/>
<path d="M59.6903 30.5967H88.8671C89.3801 30.5967 89.8721 30.8005 90.2348 31.1632C90.5976 31.526 90.8014 32.0179 90.8014 32.5309V42.5194C90.8014 43.0328 90.5974 43.5251 90.2344 43.8882C89.8714 44.2512 89.379 44.4552 88.8656 44.4552H59.6918C59.4371 44.456 59.1847 44.4065 58.9491 44.3096C58.7136 44.2127 58.4994 44.0702 58.319 43.8904C58.1386 43.7105 57.9955 43.4968 57.8978 43.2616C57.8002 43.0263 57.7499 42.7741 57.7499 42.5194V32.5309C57.7499 32.2764 57.8001 32.0244 57.8977 31.7893C57.9953 31.5542 58.1383 31.3407 58.3186 31.161C58.4988 30.9813 58.7128 30.839 58.9482 30.7422C59.1836 30.6453 59.4357 30.5959 59.6903 30.5967Z" fill="#6750A4"/>
<path d="M88.8656 30.5967H59.6918C59.4371 30.5959 59.1847 30.6453 58.9491 30.7423C58.7136 30.8392 58.4994 30.9816 58.319 31.1615C58.1386 31.3413 57.9955 31.555 57.8978 31.7903C57.8002 32.0255 57.7499 32.2777 57.7499 32.5325V36.9985C57.7499 36.7184 57.805 36.441 57.9122 36.1822C58.0194 35.9235 58.1765 35.6883 58.3746 35.4903C58.5727 35.2922 58.8078 35.1351 59.0666 35.0279C59.3253 34.9207 59.6027 34.8656 59.8828 34.8656H88.67C89.2354 34.866 89.7775 35.0909 90.1772 35.4908C90.5769 35.8908 90.8014 36.4331 90.8014 36.9985V32.5325C90.8014 32.2783 90.7513 32.0265 90.654 31.7917C90.5567 31.5568 90.4141 31.3434 90.2344 31.1637C90.0546 30.9839 89.8412 30.8413 89.6064 30.744C89.3715 30.6468 89.1198 30.5967 88.8656 30.5967Z" fill="white"/>
<path d="M59.6903 30.5967H88.8671C89.3801 30.5967 89.8721 30.8005 90.2348 31.1632C90.5976 31.526 90.8014 32.0179 90.8014 32.5309V42.5194C90.8014 43.0328 90.5974 43.5251 90.2344 43.8882C89.8714 44.2512 89.379 44.4552 88.8656 44.4552H59.6918C59.4371 44.456 59.1847 44.4065 58.9491 44.3096C58.7136 44.2127 58.4994 44.0702 58.319 43.8904C58.1386 43.7105 57.9955 43.4968 57.8978 43.2616C57.8002 43.0263 57.7499 42.7741 57.7499 42.5194V32.5309C57.7499 32.2764 57.8001 32.0244 57.8977 31.7893C57.9953 31.5542 58.1383 31.3407 58.3186 31.161C58.4988 30.9813 58.7128 30.839 58.9482 30.7422C59.1836 30.6453 59.4357 30.5959 59.6903 30.5967Z" stroke="#45413C" stroke-width="1.54" stroke-linecap="round" stroke-linejoin="round"/>
<path d="M65.2173 40.1914H83.34" stroke="#45413C" stroke-width="1.54" stroke-linecap="round" stroke-linejoin="round"/>
<path d="M69.4816 29.5311C69.4816 30.2311 69.6194 30.9241 69.8873 31.5708C70.1551 32.2175 70.5477 32.805 71.0427 33.2999C71.5376 33.7949 72.1252 34.1875 72.7718 34.4553C73.4185 34.7232 74.1116 34.8611 74.8115 34.8611C75.5114 34.8611 76.2045 34.7232 76.8512 34.4553C77.4978 34.1875 78.0854 33.7949 78.5803 33.2999C79.0753 32.805 79.4679 32.2175 79.7357 31.5708C80.0036 30.9241 80.1414 30.2311 80.1414 29.5311C80.1414 28.8312 80.0036 28.1381 79.7357 27.4914C79.4679 26.8448 79.0753 26.2572 78.5803 25.7623C78.0854 25.2673 77.4978 24.8747 76.8512 24.6069C76.2045 24.339 75.5114 24.2012 74.8115 24.2012C74.1116 24.2012 73.4185 24.339 72.7718 24.6069C72.1252 24.8747 71.5376 25.2673 71.0427 25.7623C70.5477 26.2572 70.1551 26.8448 69.8873 27.4914C69.6194 28.1381 69.4816 28.8312 69.4816 29.5311Z" fill="#6750A4"/>
<path d="M74.8115 28.4655C75.8479 28.4661 76.8617 28.769 77.7286 29.3371C78.5954 29.9053 79.2777 30.714 79.6918 31.6641C80.048 30.8528 80.1963 29.9656 80.1234 29.0826C80.0504 28.1996 79.7585 27.3487 79.2741 26.6069C78.7896 25.8651 78.1279 25.2558 77.3487 24.834C76.5695 24.4123 75.6975 24.1914 74.8115 24.1914C73.9255 24.1914 73.0535 24.4123 72.2743 24.834C71.4952 25.2558 70.8334 25.8651 70.3489 26.6069C69.8645 27.3487 69.5726 28.1996 69.4997 29.0826C69.4267 29.9656 69.5751 30.8528 69.9312 31.6641C70.3453 30.714 71.0276 29.9053 71.8945 29.3371C72.7613 28.769 73.7751 28.4661 74.8115 28.4655Z" fill="white"/>
<path d="M69.4816 29.5311C69.4816 30.2311 69.6194 30.9241 69.8873 31.5708C70.1551 32.2174 70.5477 32.805 71.0427 33.2999C71.5376 33.7949 72.1252 34.1875 72.7718 34.4553C73.4185 34.7232 74.1116 34.8611 74.8115 34.8611C75.5114 34.8611 76.2045 34.7232 76.8512 34.4553C77.4978 34.1875 78.0854 33.7949 78.5803 33.2999C79.0753 32.805 79.4679 32.2174 79.7357 31.5708C80.0036 30.9241 80.1414 30.2311 80.1414 29.5311C80.1414 28.8312 80.0036 28.1381 79.7357 27.4914C79.4679 26.8448 79.0753 26.2572 78.5803 25.7623C78.0854 25.2673 77.4978 24.8747 76.8512 24.6069C76.2045 24.339 75.5114 24.2012 74.8115 24.2012C74.1116 24.2012 73.4185 24.339 72.7718 24.6069C72.1252 24.8747 71.5376 25.2673 71.0427 25.7623C70.5477 26.2572 70.1551 26.8448 69.8873 27.4914C69.6194 28.1381 69.4816 28.8312 69.4816 29.5311V29.5311Z" stroke="#45413C" stroke-width="1.54" stroke-linecap="round" stroke-linejoin="round"/>
<path opacity="0.15" d="M100.396 63.9287L85.2265 80.3605C84.2697 81.4004 83.7647 82.7776 83.8224 84.1895C83.8801 85.6015 84.4959 86.9328 85.5345 87.8911C86.1847 88.4892 86.9757 88.913 87.8338 89.1231L82.9058 94.0511L83.6604 94.8057L76.9999 101.465C76.702 101.762 76.4985 102.14 76.4148 102.552C76.3312 102.965 76.3712 103.393 76.5297 103.782C76.6883 104.172 76.9584 104.506 77.3061 104.743C77.6539 104.979 78.0638 105.108 78.4844 105.113C78.6396 105.113 78.7944 105.097 78.9464 105.065C84.783 103.824 87.7521 102.031 87.786 99.7306L88.1895 99.3271L89.6972 100.835L93.4255 97.108C93.6883 97.3193 93.9703 97.5054 94.2679 97.6639C95.2491 98.1852 96.3686 98.3872 97.4701 98.2417C98.5716 98.0962 99.6003 97.6105 100.412 96.8524L100.396 63.9287Z" fill="#45413C"/>
<path d="M96.7211 76.8368L115.394 83.8023L123.248 71.2051L102.944 65.7227L96.7211 76.8368Z" fill="#FFBE3D"/>
<path d="M126.489 98.0982L140.95 83.6376C141.006 83.5822 141.065 83.5307 141.128 83.4836C136.288 79.2825 135.093 70.3936 125.785 65.5241C113.53 59.1254 98.3734 60.6516 85.0616 77.2759C84.507 78.0131 84.2605 78.9368 84.374 79.8523C84.4875 80.7678 84.9522 81.6034 85.67 82.1828C86.3879 82.7622 87.3028 83.0401 88.2216 82.9578C89.1404 82.8756 89.9914 82.4396 90.5949 81.7419C91.4757 80.65 92.3612 79.6367 93.2483 78.6865C93.5609 79.0207 93.9354 79.291 94.3509 79.4827C108.28 90.0286 111.088 91.3684 114.503 92.6959C119.772 94.7441 122.099 95.7328 125.972 99.2394C125.999 98.8086 126.183 98.4028 126.489 98.0982ZM116.941 75.588C115.767 77.0071 114.133 77.9711 112.324 78.3133C110.514 78.6556 108.641 78.3545 107.03 77.4622L98.7969 73.6892C103.603 70.1703 108.453 68.7027 113.284 69.3326C117.392 69.8669 118.344 73.5013 116.946 75.5819L116.941 75.588Z" fill="#FFDA8F"/>
<path d="M138.309 86.2713L140.95 83.6318C141.006 83.5763 141.065 83.5249 141.128 83.4778C136.288 79.2766 135.093 70.3878 125.785 65.5183C113.53 59.1196 98.3735 60.6457 85.0617 77.27C84.5511 77.9061 84.2737 78.6978 84.2756 79.5134C84.2776 80.329 84.5588 81.1194 85.0725 81.753C85.1752 81.5574 85.2958 81.3718 85.4329 81.1986C98.7462 64.5666 112.634 63.5117 124.999 69.6948C129.109 71.7476 134.624 81.4311 138.309 86.2713Z" fill="#FFE9BD"/>
<path opacity="0.15" d="M50.8182 128.216C50.8182 128.566 51.4162 128.913 52.578 129.237C53.7398 129.56 55.4427 129.854 57.5895 130.102C59.7362 130.35 62.2848 130.546 65.0897 130.68C67.8945 130.814 70.9008 130.883 73.9367 130.883C76.9727 130.883 79.9789 130.814 82.7838 130.68C85.5886 130.546 88.1372 130.35 90.284 130.102C92.4307 129.854 94.1336 129.56 95.2954 129.237C96.4572 128.913 97.0552 128.566 97.0552 128.216C97.0552 127.866 96.4572 127.519 95.2954 127.195C94.1336 126.872 92.4307 126.578 90.284 126.33C88.1372 126.082 85.5886 125.886 82.7838 125.752C79.9789 125.618 76.9727 125.549 73.9367 125.549C70.9008 125.549 67.8945 125.618 65.0897 125.752C62.2848 125.886 59.7362 126.082 57.5895 126.33C55.4427 126.578 53.7398 126.872 52.578 127.195C51.4162 127.519 50.8182 127.866 50.8182 128.216Z" fill="#45413C"/>
<path d="M58.8617 88.5781C58.3104 89.1291 57.9035 89.8075 57.677 90.5533C57.4506 91.2991 57.4116 92.0893 57.5636 92.8538C57.7155 93.6183 58.0537 94.3335 58.5482 94.936C59.0426 95.5385 59.6781 96.0098 60.3982 96.308C61.1183 96.6062 61.9009 96.7222 62.6765 96.6457C63.4522 96.5691 64.197 96.3024 64.845 95.8692C65.4929 95.436 66.024 94.8496 66.3912 94.1621C66.7583 93.4746 66.9502 92.7071 66.9498 91.9276V92.8763C66.9498 93.8814 67.3491 94.8454 68.0599 95.5562C68.7706 96.2669 69.7346 96.6662 70.7398 96.6662C71.7449 96.6662 72.7089 96.2669 73.4196 95.5562C74.1304 94.8454 74.5297 93.8814 74.5297 92.8763C74.5297 93.8814 74.929 94.8454 75.6397 95.5562C76.3505 96.2669 77.3145 96.6662 78.3196 96.6662H81.1579" stroke="#FF6242" stroke-width="1.54" stroke-linecap="round" stroke-linejoin="round"/>
<path d="M105.867 78.2913C106.334 78.3165 106.79 78.4333 107.212 78.6351C107.633 78.8369 108.01 79.1197 108.322 79.4674C108.634 79.815 108.874 80.2207 109.029 80.6613C109.184 81.1019 109.251 81.5687 109.226 82.035L108.601 93.585C108.55 94.5269 108.126 95.4099 107.424 96.0398C106.722 96.6696 105.799 96.9948 104.857 96.9438C103.915 96.8927 103.032 96.4696 102.402 95.7675C101.772 95.0654 101.447 94.1419 101.498 93.2L102.123 81.65C102.175 80.7083 102.598 79.8254 103.3 79.1956C104.002 78.5658 104.925 78.2405 105.867 78.2913Z" fill="#FFBE3D" stroke="#45413C" stroke-width="1.54" stroke-linecap="round" stroke-linejoin="round"/>
<path d="M102.193 77.1823C103.025 77.6258 103.647 78.3817 103.923 79.2839C104.198 80.1861 104.103 81.1606 103.66 81.9932L99.4145 90.2538C98.9601 91.066 98.2055 91.6677 97.3125 91.93C96.4196 92.1923 95.4594 92.0942 94.6379 91.6568C93.8165 91.2194 93.1991 90.4774 92.9183 89.5901C92.6376 88.7028 92.7157 87.7408 93.1359 86.9104L97.3817 78.6499C97.6011 78.2376 97.8997 77.8725 98.2602 77.5756C98.6208 77.2787 99.0363 77.0557 99.4831 76.9194C99.9299 76.7831 100.399 76.7362 100.864 76.7813C101.329 76.8264 101.78 76.9626 102.193 77.1823Z" fill="#FFBE3D" stroke="#45413C" stroke-width="1.54" stroke-linecap="round" stroke-linejoin="round"/>
<path d="M140.95 83.6318C141.006 83.5763 141.065 83.5249 141.128 83.4778C136.288 79.2766 135.093 70.3878 125.785 65.5183C113.53 59.1196 98.3734 60.6457 85.0616 77.27C84.507 78.0072 84.2605 78.931 84.374 79.8465C84.4875 80.762 84.9522 81.5976 85.67 82.177C86.3879 82.7564 87.3028 83.0343 88.2216 82.952C89.1404 82.8697 89.9914 82.4337 90.5949 81.736C91.4757 80.6442 92.3612 79.6308 93.2483 78.6807C93.5609 79.0148 93.9354 79.2852 94.3509 79.4768C108.28 90.0228 111.088 91.3626 114.503 92.69C119.772 94.7382 122.099 95.7269 125.972 99.2335C125.999 98.8017 126.183 98.3947 126.489 98.0893L140.95 83.6318ZM116.941 75.5791C115.768 76.9997 114.135 77.9655 112.325 78.3094C110.515 78.6533 108.642 78.3538 107.03 77.4625L98.7969 73.6895C103.603 70.1706 108.453 68.703 113.284 69.3329C117.392 69.8672 118.344 73.5016 116.946 75.5822L116.941 75.5791Z" stroke="#45413C" stroke-width="1.54" stroke-linecap="round" stroke-linejoin="round"/>
<path d="M113.866 76.289L109.232 69.7625L123.67 59.5061C124.058 59.2299 124.497 59.033 124.962 58.9266C125.426 58.8202 125.907 58.8063 126.377 58.8858C126.847 58.9653 127.297 59.1366 127.7 59.39C128.104 59.6433 128.454 59.9738 128.73 60.3623L129.161 60.9691C129.437 61.3577 129.634 61.7968 129.74 62.2614C129.847 62.7261 129.86 63.2071 129.781 63.6771C129.701 64.147 129.53 64.5966 129.276 65.0003C129.023 65.4039 128.692 65.7537 128.303 66.0295L113.866 76.289Z" fill="#FF6242"/>
<path d="M128.972 60.715C128.961 60.6996 128.956 60.6842 128.946 60.6688C128.674 60.2022 128.303 59.8009 127.859 59.4935C127.416 59.186 126.91 58.9799 126.377 58.8897C125.845 58.7995 125.299 58.8274 124.779 58.9714C124.259 59.1155 123.776 59.3721 123.366 59.7232L109.232 69.7625L111.471 72.9133L128.972 60.715Z" fill="#FF866E"/>
<path d="M113.866 76.289L109.232 69.7625L123.67 59.5061C124.058 59.2299 124.497 59.033 124.962 58.9266C125.426 58.8202 125.907 58.8063 126.377 58.8858C126.847 58.9653 127.297 59.1366 127.7 59.39C128.104 59.6433 128.454 59.9738 128.73 60.3623L129.161 60.9691C129.437 61.3577 129.634 61.7968 129.74 62.2614C129.847 62.7261 129.86 63.2071 129.781 63.6771C129.701 64.147 129.53 64.5966 129.276 65.0003C129.023 65.4039 128.692 65.7537 128.303 66.0295L113.866 76.289Z" stroke="#45413C" stroke-width="1.54" stroke-linecap="round" stroke-linejoin="round"/>
<path d="M109.862 66.0446L120.009 58.8359C120.292 58.6263 120.615 58.476 120.957 58.394C121.3 58.3121 121.656 58.3002 122.003 58.359C122.351 58.4178 122.683 58.5461 122.979 58.7363C123.276 58.9265 123.531 59.1746 123.73 59.4657" stroke="#45413C" stroke-width="1.54" stroke-linecap="round" stroke-linejoin="round"/>
<path d="M86.5277 88.0742L79.3975 93.1393C79.2408 93.2493 79.1237 93.4069 79.0638 93.5888C79.004 93.7707 79.0044 93.967 79.0652 94.1486C79.126 94.3302 79.2438 94.4873 79.401 94.5965C79.5583 94.7057 79.7467 94.7612 79.938 94.7547C82.9272 94.6315 87.1991 94.0895 87.1375 92.0043L88.5867 90.974L86.5277 88.0742Z" fill="#FFE500" stroke="#45413C" stroke-width="1.54" stroke-linecap="round" stroke-linejoin="round"/>
<path d="M89.1026 91.6981L86.5277 88.0745C86.3934 87.8829 86.3401 87.6461 86.3793 87.4154C86.4185 87.1848 86.5471 86.9789 86.7372 86.8425L90.3623 84.2676L93.9659 89.3496L90.3423 91.9245C90.2461 91.9911 90.1376 92.0381 90.0232 92.0628C89.9088 92.0875 89.7906 92.0894 89.6755 92.0684C89.5603 92.0474 89.4505 92.0038 89.3522 91.9403C89.2539 91.8768 89.169 91.7944 89.1026 91.6981Z" fill="#DAEDF7"/>
<path d="M91.9639 86.5159L90.3608 84.2598L86.7372 86.8346C86.5471 86.9711 86.4185 87.177 86.3793 87.4076C86.3401 87.6383 86.3934 87.8751 86.5277 88.0666L87.5888 89.5604L91.9639 86.5159Z" fill="#6750A4"/>
<path d="M89.1026 91.6981L86.5277 88.0745C86.3934 87.8829 86.3401 87.6461 86.3793 87.4154C86.4185 87.1848 86.5471 86.9789 86.7372 86.8425L90.3623 84.2676L93.9659 89.3496L90.3423 91.9245C90.2461 91.9911 90.1376 92.0381 90.0232 92.0628C89.9088 92.0875 89.7906 92.0894 89.6755 92.0684C89.5603 92.0474 89.4505 92.0039 89.3522 91.9403C89.2539 91.8768 89.169 91.7944 89.1026 91.6981V91.6981Z" stroke="#45413C" stroke-width="1.54" stroke-linecap="round" stroke-linejoin="round"/>
<path d="M93.4517 88.6092L90.8768 84.9856C90.6039 84.601 90.4949 84.1238 90.5737 83.6589C90.6526 83.1939 90.9128 82.7793 91.2973 82.5062L109.232 69.7627L113.866 76.2861L95.9311 89.0296C95.5465 89.3025 95.0693 89.4116 94.6044 89.3327C94.1394 89.2539 93.7248 88.9936 93.4517 88.6092Z" fill="#FF6242"/>
<path d="M91.9641 86.5164L111.471 72.9166L109.232 69.7627L91.2973 82.5062C91.1067 82.6413 90.9447 82.8126 90.8205 83.0104C90.6962 83.2082 90.6122 83.4285 90.5731 83.6587C90.5341 83.889 90.5408 84.1247 90.5929 84.3524C90.645 84.5801 90.7415 84.7952 90.8768 84.9856L91.9641 86.5164Z" fill="#FF866E"/>
<path d="M93.4517 88.6092L90.8768 84.9856C90.6039 84.601 90.4949 84.1238 90.5737 83.6589C90.6526 83.1939 90.9128 82.7793 91.2973 82.5062L109.232 69.7627L113.866 76.2861L95.9311 89.0296C95.5465 89.3025 95.0693 89.4116 94.6044 89.3327C94.1394 89.2539 93.7248 88.9936 93.4517 88.6092V88.6092Z" stroke="#45413C" stroke-width="1.54" stroke-linecap="round" stroke-linejoin="round"/>
<path d="M116.946 75.5817C115.772 77.0029 114.138 77.9688 112.327 78.3122C110.516 78.6557 108.642 78.3549 107.03 77.4621L97.3062 73.0161C96.8799 72.8095 96.4166 72.6902 95.9435 72.6651C95.4704 72.6401 94.9971 72.7097 94.5513 72.8701C94.1055 73.0304 93.6962 73.2781 93.3474 73.5988C92.9987 73.9194 92.7175 74.3065 92.5204 74.7373C92.3232 75.168 92.2141 75.6339 92.1995 76.1074C92.1848 76.5809 92.2648 77.0526 92.4349 77.4947C92.605 77.9369 92.8617 78.3406 93.1899 78.6823C93.5182 79.0239 93.9113 79.2965 94.3463 79.4841C108.276 90.03 111.083 91.3698 114.499 92.6973" fill="#FFCEBF"/>
<path d="M98.4211 77.6762L108.145 82.1222C108.988 82.5355 109.917 82.7433 110.856 82.7286C111.796 82.7139 112.718 82.4772 113.548 82.0377C114.378 81.5981 115.092 80.9684 115.632 80.1999C116.172 79.4314 116.523 78.546 116.655 77.6161L116.946 75.5787C115.772 77.0004 114.139 77.9669 112.328 78.3109C110.517 78.6549 108.643 78.3546 107.03 77.4621L97.3061 73.0162C96.495 72.6458 95.5742 72.5941 94.7266 72.8712C93.8791 73.1483 93.1667 73.734 92.731 74.512C92.2953 75.29 92.168 76.2034 92.3745 77.0709C92.5811 77.9383 93.1062 78.6964 93.8458 79.1946C94.2759 78.4108 94.9866 77.8186 95.8353 77.537C96.6839 77.2553 97.6076 77.3051 98.4211 77.6762Z" fill="#FFDCD1"/>
<path d="M116.946 75.5817C115.772 77.0029 114.138 77.9688 112.327 78.3122C110.516 78.6557 108.642 78.3549 107.03 77.4621L97.3062 73.0161C96.8799 72.8095 96.4166 72.6902 95.9435 72.6651C95.4704 72.6401 94.9971 72.7097 94.5513 72.8701C94.1055 73.0304 93.6962 73.2781 93.3474 73.5988C92.9987 73.9194 92.7175 74.3065 92.5204 74.7373C92.3232 75.168 92.2141 75.6339 92.1995 76.1074C92.1848 76.5809 92.2648 77.0526 92.4349 77.4947C92.605 77.9369 92.8617 78.3406 93.1899 78.6822C93.5182 79.0239 93.9113 79.2965 94.3463 79.4841C108.276 90.03 111.083 91.3698 114.499 92.6973" stroke="#45413C" stroke-width="1.54" stroke-linecap="round" stroke-linejoin="round"/>
<path d="M116.946 75.5817C115.772 77.0029 114.138 77.9688 112.327 78.3122C110.516 78.6557 108.642 78.3549 107.03 77.4621L97.3062 73.0161C96.8799 72.8095 96.4166 72.6902 95.9435 72.6651C95.4704 72.6401 94.9971 72.7097 94.5513 72.8701C94.1055 73.0304 93.6962 73.2781 93.3474 73.5988C92.9987 73.9194 92.7175 74.3065 92.5204 74.7373C92.3232 75.168 92.2141 75.6339 92.1995 76.1074C92.1848 76.5809 92.2648 77.0526 92.4349 77.4947C92.605 77.9369 92.8617 78.3406 93.1899 78.6823C93.5182 79.0239 93.9113 79.2965 94.3463 79.4841C108.276 90.03 111.083 91.3698 114.499 92.6973" fill="#FFDA8F"/>
<path d="M98.4211 77.6762L108.145 82.1222C108.988 82.5355 109.917 82.7433 110.856 82.7286C111.796 82.7139 112.718 82.4772 113.548 82.0377C114.378 81.5981 115.092 80.9684 115.632 80.1999C116.172 79.4314 116.523 78.546 116.655 77.6161L116.946 75.5787C115.772 77.0004 114.139 77.9669 112.328 78.3109C110.517 78.6549 108.643 78.3546 107.03 77.4621L97.3061 73.0162C96.495 72.6458 95.5742 72.5941 94.7266 72.8712C93.8791 73.1483 93.1667 73.734 92.731 74.512C92.2953 75.29 92.168 76.2034 92.3745 77.0709C92.5811 77.9383 93.1062 78.6964 93.8458 79.1946C94.2759 78.4108 94.9866 77.8186 95.8353 77.537C96.6839 77.2553 97.6076 77.3051 98.4211 77.6762Z" fill="#FFE9BD"/>
<path d="M116.946 75.5817C115.772 77.0029 114.138 77.9688 112.327 78.3122C110.516 78.6557 108.642 78.3549 107.03 77.4621L97.3062 73.0161C96.8799 72.8095 96.4166 72.6902 95.9435 72.6651C95.4704 72.6401 94.9971 72.7097 94.5513 72.8701C94.1055 73.0304 93.6962 73.2781 93.3474 73.5988C92.9987 73.9194 92.7175 74.3065 92.5204 74.7373C92.3232 75.168 92.2141 75.6339 92.1995 76.1074C92.1848 76.5809 92.2648 77.0526 92.4349 77.4947C92.605 77.9369 92.8617 78.3406 93.1899 78.6822C93.5182 79.0239 93.9113 79.2965 94.3463 79.4841C108.276 90.03 111.083 91.3698 114.499 92.6973" stroke="#45413C" stroke-width="1.54" stroke-linecap="round" stroke-linejoin="round"/>
</svg>
