<svg width="18" height="18" viewBox="0 0 18 18" fill="current" xmlns="http://www.w3.org/2000/svg">
<path d="M14.2249 5.5249C14.2807 5.46919 14.325 5.40304 14.3552 5.33023C14.3854 5.25741 14.401 5.17936 14.401 5.10052C14.4011 5.02168 14.3856 4.94361 14.3555 4.87075C14.3254 4.79789 14.2812 4.73168 14.2255 4.6759C14.1698 4.62011 14.1036 4.57585 14.0308 4.54562C13.958 4.5154 13.88 4.49982 13.8011 4.49976C13.7223 4.49971 13.6442 4.51518 13.5714 4.5453C13.4985 4.57542 13.4323 4.61959 13.3765 4.6753L11.6809 6.3697L11.2045 5.9353C11.0861 5.83412 10.9331 5.78293 10.7776 5.79254C10.6222 5.80214 10.4766 5.8718 10.3716 5.98678C10.2666 6.10176 10.2104 6.25306 10.2149 6.40871C10.2194 6.56436 10.2842 6.71217 10.3957 6.8209L11.2957 7.6429C11.4097 7.74672 11.5594 7.80265 11.7135 7.79907C11.8677 7.7955 12.0146 7.73269 12.1237 7.6237L14.2237 5.5237L14.2249 5.5249ZM14.2249 10.6753C14.2808 10.731 14.3251 10.7972 14.3554 10.8701C14.3856 10.943 14.4012 11.0212 14.4012 11.1001C14.4012 11.179 14.3856 11.2572 14.3554 11.3301C14.3251 11.403 14.2808 11.4692 14.2249 11.5249L12.1249 13.6249C12.0156 13.7341 11.8684 13.7969 11.7139 13.8002C11.5594 13.8036 11.4096 13.7472 11.2957 13.6429L10.3957 12.8209C10.2842 12.7122 10.2194 12.5644 10.2149 12.4087C10.2104 12.2531 10.2666 12.1018 10.3716 11.9868C10.4766 11.8718 10.6222 11.8021 10.7776 11.7925C10.9331 11.7829 11.0861 11.8341 11.2045 11.9353L11.6809 12.3709L13.3753 10.6753C13.431 10.6194 13.4972 10.5751 13.5701 10.5448C13.643 10.5146 13.7212 10.499 13.8001 10.499C13.879 10.499 13.9572 10.5146 14.0301 10.5448C14.103 10.5751 14.1692 10.6194 14.2249 10.6753V10.6753ZM4.8001 11.4001C4.64097 11.4001 4.48836 11.4633 4.37583 11.5758C4.26331 11.6884 4.2001 11.841 4.2001 12.0001C4.2001 12.1592 4.26331 12.3118 4.37583 12.4244C4.48836 12.5369 4.64097 12.6001 4.8001 12.6001H7.8001C7.95923 12.6001 8.11184 12.5369 8.22436 12.4244C8.33688 12.3118 8.4001 12.1592 8.4001 12.0001C8.4001 11.841 8.33688 11.6884 8.22436 11.5758C8.11184 11.4633 7.95923 11.4001 7.8001 11.4001H4.8001ZM4.2001 6.0001C4.2001 5.84097 4.26331 5.68836 4.37583 5.57583C4.48836 5.46331 4.64097 5.4001 4.8001 5.4001H7.8001C7.95923 5.4001 8.11184 5.46331 8.22436 5.57583C8.33688 5.68836 8.4001 5.84097 8.4001 6.0001C8.4001 6.15923 8.33688 6.31184 8.22436 6.42436C8.11184 6.53688 7.95923 6.6001 7.8001 6.6001H4.8001C4.64097 6.6001 4.48836 6.53688 4.37583 6.42436C4.26331 6.31184 4.2001 6.15923 4.2001 6.0001ZM4.2001 0.600098C3.24532 0.600098 2.32964 0.979382 1.65451 1.65451C0.979382 2.32964 0.600098 3.24532 0.600098 4.2001V13.8001C0.600098 14.7549 0.979382 15.6706 1.65451 16.3457C2.32964 17.0208 3.24532 17.4001 4.2001 17.4001H13.8001C14.7549 17.4001 15.6706 17.0208 16.3457 16.3457C17.0208 15.6706 17.4001 14.7549 17.4001 13.8001V4.2001C17.4001 3.24532 17.0208 2.32964 16.3457 1.65451C15.6706 0.979382 14.7549 0.600098 13.8001 0.600098H4.2001ZM1.8001 4.2001C1.8001 3.56358 2.05295 2.95313 2.50304 2.50304C2.95313 2.05295 3.56358 1.8001 4.2001 1.8001H13.8001C14.4366 1.8001 15.0471 2.05295 15.4972 2.50304C15.9472 2.95313 16.2001 3.56358 16.2001 4.2001V13.8001C16.2001 14.4366 15.9472 15.0471 15.4972 15.4972C15.0471 15.9472 14.4366 16.2001 13.8001 16.2001H4.2001C3.56358 16.2001 2.95313 15.9472 2.50304 15.4972C2.05295 15.0471 1.8001 14.4366 1.8001 13.8001V4.2001Z" fill="current"/>
</svg>
