<svg width="48" height="48" viewBox="0 0 48 48" fill="none" xmlns="http://www.w3.org/2000/svg">
<path d="M26.8594 19.7344C25.7766 19.7344 24.9375 20.5734 24.9375 21.6094C24.9375 22.6453 25.7766 23.4844 26.8594 23.4844C27.8484 23.4844 28.6875 22.6453 28.6875 21.6094C28.6875 20.5734 27.8484 19.7344 26.8594 19.7344ZM13.7344 19.7344C12.6516 19.7344 11.8125 20.5734 11.8125 21.6094C11.8125 22.6453 12.6516 23.4844 13.7344 23.4844C14.7234 23.4844 15.5625 22.6453 15.5625 21.6094C15.5625 20.5734 14.7234 19.7344 13.7344 19.7344Z" fill="#1C1B1F"/>
<path d="M41.9062 16.172C39.6515 13.0783 36.5015 11.0111 33.0469 10.0783V10.083C32.2453 9.19233 31.3406 8.37202 30.3281 7.64077C22.6547 2.06264 11.8828 3.76421 6.28123 11.4376C1.76717 17.672 1.95936 26.058 6.56248 32.0158L6.59999 38.2314C6.59999 38.3814 6.62342 38.5314 6.6703 38.672C6.91874 39.4642 7.76248 39.9001 8.54998 39.6517L14.4844 37.7814C16.0547 38.3392 17.6765 38.658 19.289 38.747L19.2656 38.7658C23.4422 41.808 28.9172 42.722 33.9375 41.0626L39.8953 43.0033C40.0453 43.0501 40.2 43.0783 40.3594 43.0783C41.189 43.0783 41.8594 42.408 41.8594 41.5783V35.297C45.989 29.6908 46.0969 21.9423 41.9062 16.172ZM15.1406 34.4533L14.5781 34.2189L9.93748 35.672L9.89061 30.797L9.51561 30.3751C5.54998 25.5376 5.28749 18.5673 8.99998 13.4533C13.5187 7.25639 22.1812 5.88764 28.3594 10.3595C34.5562 14.8642 35.9297 23.5126 31.4531 29.672C27.6984 34.8236 20.9765 36.7267 15.1406 34.4533ZM38.8125 33.6564L38.4375 34.1251L38.4844 39.0001L33.8906 37.4533L33.3281 37.6876C30.7031 38.6626 27.9047 38.7423 25.3125 38.0158L25.3031 38.0111C28.7672 36.947 31.9078 34.7908 34.1719 31.6876C37.7531 26.7517 38.3344 20.5501 36.2531 15.2626L36.2812 15.2814C37.3594 16.0548 38.3484 17.0205 39.1875 18.1876C42.5906 22.8564 42.3984 29.2126 38.8125 33.6564Z" fill="#1C1B1F"/>
<path d="M20.2969 19.7344C19.2141 19.7344 18.375 20.5734 18.375 21.6094C18.375 22.6453 19.2141 23.4844 20.2969 23.4844C21.2859 23.4844 22.125 22.6453 22.125 21.6094C22.125 20.5734 21.2859 19.7344 20.2969 19.7344Z" fill="#1C1B1F"/>
</svg>
