<svg width="33" height="32" viewBox="0 0 33 32" fill="none" xmlns="http://www.w3.org/2000/svg">
<path d="M8.33333 25.3333C8.33333 26.8 9.53333 28 11 28H21.6667C23.1333 28 24.3333 26.8 24.3333 25.3333V9.33333H8.33333V25.3333ZM12.56 16.7867C12.3107 16.5374 12.1706 16.1992 12.1706 15.8467C12.1706 15.4941 12.3107 15.156 12.56 14.9067C12.8093 14.6574 13.1474 14.5173 13.5 14.5173C13.8526 14.5173 14.1907 14.6574 14.44 14.9067L16.3333 16.7867L18.2133 14.9067C18.4626 14.6574 18.8008 14.5173 19.1533 14.5173C19.5059 14.5173 19.844 14.6574 20.0933 14.9067C20.3426 15.156 20.4827 15.4941 20.4827 15.8467C20.4827 16.1992 20.3426 16.5374 20.0933 16.7867L18.2133 18.6667L20.0933 20.5467C20.2168 20.6701 20.3147 20.8167 20.3815 20.9779C20.4483 21.1392 20.4827 21.3121 20.4827 21.4867C20.4827 21.6612 20.4483 21.8341 20.3815 21.9954C20.3147 22.1567 20.2168 22.3032 20.0933 22.4267C19.9699 22.5501 19.8233 22.648 19.6621 22.7148C19.5008 22.7816 19.3279 22.816 19.1533 22.816C18.9788 22.816 18.8059 22.7816 18.6446 22.7148C18.4833 22.648 18.3368 22.5501 18.2133 22.4267L16.3333 20.5467L14.4533 22.4267C14.3299 22.5501 14.1833 22.648 14.0221 22.7148C13.8608 22.7816 13.6879 22.816 13.5133 22.816C13.3388 22.816 13.1659 22.7816 13.0046 22.7148C12.8433 22.648 12.6968 22.5501 12.5733 22.4267C12.4499 22.3032 12.352 22.1567 12.2852 21.9954C12.2184 21.8341 12.184 21.6612 12.184 21.4867C12.184 21.3121 12.2184 21.1392 12.2852 20.9779C12.352 20.8167 12.4499 20.6701 12.5733 20.5467L14.4533 18.6667L12.56 16.7867ZM24.3333 5.33333H21L20.0533 4.38667C19.8133 4.14667 19.4667 4 19.12 4H13.5467C13.2 4 12.8533 4.14667 12.6133 4.38667L11.6667 5.33333H8.33333C7.6 5.33333 7 5.93333 7 6.66667C7 7.4 7.6 8 8.33333 8H24.3333C25.0667 8 25.6667 7.4 25.6667 6.66667C25.6667 5.93333 25.0667 5.33333 24.3333 5.33333Z" fill="#505050"/>
</svg>
