<svg width="24" height="24" viewBox="0 0 24 24" fill="none" xmlns="http://www.w3.org/2000/svg">
<path d="M17.2249 8.5249C17.2807 8.46919 17.325 8.40304 17.3552 8.33023C17.3854 8.25741 17.401 8.17936 17.401 8.10052C17.4011 8.02169 17.3856 7.94361 17.3555 7.87075C17.3254 7.79789 17.2812 7.73168 17.2255 7.6759C17.1698 7.62011 17.1036 7.57585 17.0308 7.54562C16.958 7.5154 16.88 7.49982 16.8011 7.49976C16.7223 7.49971 16.6442 7.51518 16.5714 7.5453C16.4985 7.57542 16.4323 7.61959 16.3765 7.6753L14.6809 9.3697L14.2045 8.9353C14.0861 8.83412 13.9331 8.78293 13.7776 8.79254C13.6222 8.80214 13.4766 8.8718 13.3716 8.98678C13.2666 9.10176 13.2104 9.25306 13.2149 9.40871C13.2194 9.56436 13.2842 9.71217 13.3957 9.8209L14.2957 10.6429C14.4097 10.7467 14.5594 10.8026 14.7135 10.7991C14.8677 10.7955 15.0146 10.7327 15.1237 10.6237L17.2237 8.5237L17.2249 8.5249ZM17.2249 13.6753C17.2808 13.731 17.3251 13.7972 17.3554 13.8701C17.3856 13.943 17.4012 14.0212 17.4012 14.1001C17.4012 14.179 17.3856 14.2572 17.3554 14.3301C17.3251 14.403 17.2808 14.4692 17.2249 14.5249L15.1249 16.6249C15.0156 16.7341 14.8684 16.7969 14.7139 16.8002C14.5594 16.8036 14.4096 16.7472 14.2957 16.6429L13.3957 15.8209C13.2842 15.7122 13.2194 15.5644 13.2149 15.4087C13.2104 15.2531 13.2666 15.1018 13.3716 14.9868C13.4766 14.8718 13.6222 14.8021 13.7776 14.7925C13.9331 14.7829 14.0861 14.8341 14.2045 14.9353L14.6809 15.3709L16.3753 13.6753C16.431 13.6194 16.4972 13.5751 16.5701 13.5448C16.643 13.5146 16.7212 13.499 16.8001 13.499C16.879 13.499 16.9572 13.5146 17.0301 13.5448C17.103 13.5751 17.1692 13.6194 17.2249 13.6753ZM7.8001 14.4001C7.64097 14.4001 7.48836 14.4633 7.37583 14.5758C7.26331 14.6884 7.2001 14.841 7.2001 15.0001C7.2001 15.1592 7.26331 15.3118 7.37583 15.4244C7.48836 15.5369 7.64097 15.6001 7.8001 15.6001H10.8001C10.9592 15.6001 11.1118 15.5369 11.2244 15.4244C11.3369 15.3118 11.4001 15.1592 11.4001 15.0001C11.4001 14.841 11.3369 14.6884 11.2244 14.5758C11.1118 14.4633 10.9592 14.4001 10.8001 14.4001H7.8001ZM7.2001 9.0001C7.2001 8.84097 7.26331 8.68836 7.37583 8.57583C7.48836 8.46331 7.64097 8.4001 7.8001 8.4001H10.8001C10.9592 8.4001 11.1118 8.46331 11.2244 8.57583C11.3369 8.68836 11.4001 8.84097 11.4001 9.0001C11.4001 9.15923 11.3369 9.31184 11.2244 9.42436C11.1118 9.53688 10.9592 9.6001 10.8001 9.6001H7.8001C7.64097 9.6001 7.48836 9.53688 7.37583 9.42436C7.26331 9.31184 7.2001 9.15923 7.2001 9.0001ZM7.2001 3.6001C6.24532 3.6001 5.32964 3.97938 4.65451 4.65451C3.97938 5.32964 3.6001 6.24532 3.6001 7.2001V16.8001C3.6001 17.7549 3.97938 18.6706 4.65451 19.3457C5.32964 20.0208 6.24532 20.4001 7.2001 20.4001H16.8001C17.7549 20.4001 18.6706 20.0208 19.3457 19.3457C20.0208 18.6706 20.4001 17.7549 20.4001 16.8001V7.2001C20.4001 6.24532 20.0208 5.32964 19.3457 4.65451C18.6706 3.97938 17.7549 3.6001 16.8001 3.6001H7.2001ZM4.8001 7.2001C4.8001 6.56358 5.05295 5.95313 5.50304 5.50304C5.95313 5.05295 6.56358 4.8001 7.2001 4.8001H16.8001C17.4366 4.8001 18.0471 5.05295 18.4972 5.50304C18.9472 5.95313 19.2001 6.56358 19.2001 7.2001V16.8001C19.2001 17.4366 18.9472 18.0471 18.4972 18.4972C18.0471 18.9472 17.4366 19.2001 16.8001 19.2001H7.2001C6.56358 19.2001 5.95313 18.9472 5.50304 18.4972C5.05295 18.0471 4.8001 17.4366 4.8001 16.8001V7.2001Z" fill="#1C1B1F"/>
</svg>
