<svg width="16" height="22" viewBox="0 0 16 22" fill="current" xmlns="http://www.w3.org/2000/svg">
<path d="M14 21.5H2C1.6023 21.4996 1.221 21.3414 0.939779 21.0602C0.65856 20.779 0.500397 20.3977 0.5 20V2C0.500397 1.6023 0.65856 1.221 0.939779 0.939778C1.221 0.65856 1.6023 0.500397 2 0.5H14C14.3977 0.500397 14.779 0.65856 15.0602 0.939778C15.3414 1.221 15.4996 1.6023 15.5 2V14.4635L11.75 12.5885L8 14.4635V2H2V20H14V17H15.5V20C15.4994 20.3976 15.3412 20.7788 15.06 21.06C14.7788 21.3412 14.3976 21.4994 14 21.5ZM11.75 10.9115L14 12.0365V2H9.5V12.0365L11.75 10.9115Z" fill="current"/>
</svg>
