<svg width="122" height="156" viewBox="0 0 122 156" fill="none" xmlns="http://www.w3.org/2000/svg">
<path d="M51 48C51 19.8335 28.1665 -3 0 -3V54.8919H51V48Z" fill="#FFD8E4"/>
<path d="M0 106C0 77.8335 22.8335 55 51 55V112.892H0V106Z" fill="#FF6C99"/>
<path d="M122 198C122 165.967 96.0325 140 64 140H62V198H122Z" fill="#FF465A"/>
<ellipse cx="28" cy="135.5" rx="23" ry="22.5" fill="#FFC582"/>
<path d="M56 74C89.1371 74 116 47.1371 116 14V0H56V74Z" fill="#6CCAFF"/>
<path d="M116 63C82.8629 63 56 89.8629 56 123V129H116V63Z" fill="#4B917C"/>
</svg>
