<svg width="24" height="24" viewBox="0 0 24 24" fill="current" xmlns="http://www.w3.org/2000/svg">
<path d="M17.25 22.5C16.2117 22.5 15.1966 22.1921 14.3333 21.6152C13.4699 21.0383 12.797 20.2184 12.3996 19.2591C12.0023 18.2998 11.8983 17.2442 12.1009 16.2258C12.3035 15.2074 12.8035 14.2719 13.5377 13.5377C14.2719 12.8035 15.2074 12.3035 16.2258 12.1009C17.2442 11.8983 18.2998 12.0023 19.2591 12.3996C20.2184 12.797 21.0383 13.4699 21.6152 14.3333C22.1921 15.1966 22.5 16.2117 22.5 17.25C22.4984 18.6419 21.9448 19.9763 20.9606 20.9606C19.9763 21.9448 18.6419 22.4984 17.25 22.5ZM17.25 13.5C16.5083 13.5 15.7833 13.7199 15.1666 14.132C14.5499 14.544 14.0693 15.1297 13.7855 15.8149C13.5016 16.5002 13.4274 17.2542 13.5721 17.9816C13.7168 18.709 14.0739 19.3772 14.5984 19.9017C15.1228 20.4261 15.791 20.7833 16.5184 20.9279C17.2458 21.0726 17.9998 20.9984 18.6851 20.7146C19.3703 20.4307 19.956 19.9501 20.368 19.3334C20.7801 18.7167 21 17.9917 21 17.25C20.999 16.2557 20.6036 15.3025 19.9006 14.5994C19.1975 13.8964 18.2443 13.501 17.25 13.5Z" fill="current"/>
<path d="M19.5 18.4395L18 16.9395V15H16.5V17.5605L18.4395 19.5L19.5 18.4395ZM6 12H10.5V13.5H6V12ZM6 7.5H15V9H6V7.5Z" fill="current"/>
<path d="M19.5 3C19.4996 2.6023 19.3414 2.221 19.0602 1.93978C18.779 1.65856 18.3977 1.5004 18 1.5H3.00001C2.6023 1.5004 2.221 1.65856 1.93978 1.93978C1.65856 2.221 1.5004 2.6023 1.50001 3V12.75C1.49833 14.2458 1.90404 15.7137 2.67359 16.9964C3.44313 18.279 4.54745 19.3278 5.868 20.0303L9.75 22.1003V20.4L6.5745 18.7065C5.49402 18.1318 4.59042 17.2737 3.96069 16.2243C3.33095 15.1749 2.99884 13.9738 3.00001 12.75V3H18V9.75H19.5V3Z" fill="current"/>
</svg>
