<svg width="24" height="24" viewBox="0 0 24 24" fill="none" xmlns="http://www.w3.org/2000/svg">
<path d="M19.9659 11.9051L19.6596 12.3098L19.8055 12.7959C19.8606 12.9796 19.8905 13.1778 19.8945 13.3859C19.8928 13.8263 19.7475 14.2494 19.4854 14.5957L19.1792 15.0004L19.325 15.4865C19.381 15.6732 19.4094 15.867 19.4094 16.0663C19.4094 16.5096 19.2639 16.9356 19.0002 17.284L18.694 17.6887L18.8398 18.1748C18.8959 18.3615 18.9242 18.5553 18.9242 18.7546C18.9242 19.5629 18.4442 20.291 17.6968 20.6098L17.6968 20.6097L17.6911 20.6122C17.6278 20.6397 17.5529 20.6562 17.468 20.6562H7.39844V11.7859L9.38266 4.60209L9.38284 4.60142C9.58658 3.86177 10.2696 3.34133 11.0391 3.34133L11.0428 3.34132C11.2477 3.34056 11.4507 3.38183 11.639 3.46259C11.8274 3.54336 11.9972 3.66189 12.1379 3.81087L12.1394 3.81244C12.4297 4.11838 12.5771 4.51334 12.5574 4.93711C12.5574 4.9374 12.5574 4.9377 12.5574 4.93799L12.4168 7.81678L12.3656 8.86554H13.4156L19.0359 8.86554L19.0369 8.86554C19.1413 8.86545 19.2438 8.89325 19.3339 8.94608C19.9919 9.33209 20.375 10.0093 20.375 10.6874C20.375 11.1307 20.2295 11.5567 19.9659 11.9051ZM3.89844 20.6562H3.625V12.6249H3.89844V20.6562Z" stroke="#6750A4" stroke-width="2"/>
</svg>
