<svg width="288" height="132" viewBox="0 0 288 132" fill="none" xmlns="http://www.w3.org/2000/svg">
<path d="M119.401 35.1646C106.198 36.4919 99.5633 45.7848 98.8618 54.8024C119.201 53.1994 126.715 47.2879 126.014 34.864C123.648 34.7118 122.391 34.864 119.401 35.1646Z" fill="#E82A66"/>
<path d="M119.1 35.1644C104.171 38.9717 91.347 52.3974 104.171 68.9291C79.7246 70.9331 73.3122 36.1666 101.266 35.1644H119.1Z" fill="#EA5072"/>
<path d="M90.9741 88.0135C104.177 86.6862 110.812 77.3933 111.513 68.3757C91.1744 69.9787 83.6602 75.8903 84.3614 88.3142C86.7277 88.4663 87.9844 88.3142 90.9741 88.0135Z" fill="#1478D5"/>
<path d="M91.2751 88.013C106.204 84.2058 119.028 70.7801 106.204 54.2483C130.651 52.2444 137.063 87.0109 109.109 88.013H91.2751Z" fill="#258FF1"/>
<path d="M119.401 35.1646C106.198 36.4919 99.5633 45.7848 98.8618 54.8024C119.201 53.1994 126.715 47.2879 126.014 34.864C123.648 34.7118 122.391 34.864 119.401 35.1646Z" fill="#E82A66"/>
<path d="M119.1 35.1644C104.171 38.9717 91.347 52.3974 104.171 68.9291C79.7246 70.9331 73.3122 36.1666 101.266 35.1644H119.1Z" fill="#EA5072"/>
<path d="M90.9741 88.0135C104.177 86.6862 110.812 77.3933 111.513 68.3757C91.1744 69.9787 83.6602 75.8903 84.3614 88.3142C86.7277 88.4663 87.9844 88.3142 90.9741 88.0135Z" fill="#1478D5"/>
<path d="M91.2751 88.013C106.204 84.2058 119.028 70.7801 106.204 54.2483C130.651 52.2444 137.063 87.0109 109.109 88.013H91.2751Z" fill="#258FF1"/>
<path d="M142.507 76.2212C141.371 76.2212 140.279 76.0393 139.231 75.6752C138.198 75.3112 137.397 74.8307 136.829 74.234L137.462 72.9892C138.016 73.5423 138.751 73.9937 139.668 74.3431C140.585 74.6779 141.531 74.8454 142.507 74.8454C143.875 74.8454 144.902 74.598 145.586 74.1029C146.27 73.5935 146.612 72.9384 146.612 72.1375C146.612 71.5261 146.423 71.0385 146.045 70.6744C145.68 70.3103 145.229 70.034 144.691 69.8446C144.152 69.6409 143.402 69.4225 142.441 69.1895C141.291 68.8984 140.374 68.6217 139.69 68.3596C139.006 68.0829 138.416 67.668 137.921 67.1149C137.441 66.5618 137.2 65.8118 137.2 64.8656C137.2 64.0941 137.404 63.3953 137.812 62.7692C138.22 62.1287 138.845 61.619 139.69 61.2406C140.534 60.8622 141.583 60.6728 142.834 60.6728C143.708 60.6728 144.56 60.7967 145.389 61.044C146.234 61.2771 146.962 61.6046 147.573 62.0267L147.027 63.3151C146.387 62.8931 145.702 62.5798 144.975 62.3761C144.247 62.1577 143.533 62.0486 142.834 62.0486C141.495 62.0486 140.483 62.3106 139.799 62.8347C139.129 63.3441 138.794 64.0068 138.794 64.8219C138.794 65.4334 138.976 65.9285 139.34 66.3069C139.719 66.671 140.185 66.9549 140.738 67.1586C141.306 67.3479 142.063 67.5588 143.009 67.7919C144.13 68.0686 145.033 68.345 145.717 68.6217C146.416 68.8837 147.005 69.2915 147.486 69.8446C147.966 70.3834 148.206 71.1183 148.206 72.0502C148.206 72.8217 147.995 73.528 147.573 74.1684C147.165 74.7946 146.532 75.2968 145.673 75.6752C144.815 76.0393 143.759 76.2212 142.507 76.2212ZM164.502 60.8038V76.0901H162.908V69.0366H153.343V76.0901H151.727V60.8038H153.343V67.6172H162.908V60.8038H164.502ZM180.302 74.6925V76.0901H169.492V60.8038H179.974V62.2014H171.108V67.639H179.013V69.0148H171.108V74.6925H180.302ZM187.07 62.2014H181.698V60.8038H194.058V62.2014H188.686V76.0901H187.07V62.2014ZM209.415 60.8038V76.0901H207.82V69.0366H198.256V76.0901H196.64V60.8038H198.256V67.6172H207.82V60.8038H209.415ZM214.404 60.8038H216.02V76.0901H214.404V60.8038ZM233.769 60.8038V76.0901H232.437L222.61 63.6864V76.0901H220.994V60.8038H222.326L232.175 73.2076V60.8038H233.769ZM243.497 68.9056L240.374 72.072V76.0901H238.758V60.8038H240.374V70.0411L249.349 60.8038H251.206L244.589 67.7263L251.664 76.0901H249.743L243.497 68.9056Z" fill="#1C1B1F"/>
<path d="M189.66 86.4018C189.255 86.4018 188.862 86.3441 188.482 86.2291C188.107 86.1141 187.809 85.9613 187.589 85.7712L187.926 85.013C188.142 85.1833 188.404 85.3232 188.715 85.4334C189.03 85.5385 189.345 85.5911 189.66 85.5911C190.051 85.5911 190.341 85.5286 190.531 85.4034C190.726 85.2782 190.824 85.113 190.824 84.9079C190.824 84.7578 190.769 84.6353 190.659 84.5401C190.554 84.4401 190.419 84.3623 190.253 84.3074C190.088 84.2525 189.863 84.1897 189.578 84.1197C189.178 84.0245 188.852 83.9297 188.602 83.8345C188.357 83.7393 188.144 83.5919 187.964 83.3916C187.789 83.1865 187.701 82.9112 187.701 82.5659C187.701 82.2755 187.779 82.0128 187.934 81.7777C188.094 81.5374 188.332 81.3474 188.647 81.2072C188.967 81.0669 189.358 80.997 189.818 80.997C190.139 80.997 190.454 81.0369 190.764 81.1171C191.074 81.1973 191.342 81.3122 191.567 81.4624L191.259 82.2206C191.029 82.0854 190.789 81.9827 190.539 81.9128C190.289 81.8428 190.046 81.8077 189.811 81.8077C189.425 81.8077 189.137 81.8729 188.947 82.0029C188.762 82.1329 188.67 82.3055 188.67 82.5208C188.67 82.671 188.722 82.7935 188.827 82.8886C188.937 82.9838 189.075 83.0589 189.24 83.1139C189.405 83.1688 189.63 83.2316 189.916 83.3015C190.306 83.3916 190.626 83.4868 190.877 83.5868C191.127 83.682 191.34 83.8294 191.515 84.0297C191.695 84.23 191.785 84.5002 191.785 84.8404C191.785 85.1308 191.705 85.3935 191.545 85.6286C191.389 85.8637 191.152 86.0514 190.831 86.1916C190.511 86.3318 190.121 86.4018 189.66 86.4018ZM192.662 82.3181H193.601V86.3267H192.662V82.3181ZM193.135 81.6576C192.965 81.6576 192.822 81.605 192.707 81.4999C192.592 81.3897 192.535 81.2546 192.535 81.0946C192.535 80.9345 192.592 80.8018 192.707 80.6967C192.822 80.5865 192.965 80.5316 193.135 80.5316C193.306 80.5316 193.448 80.5841 193.563 80.6892C193.678 80.7892 193.736 80.9168 193.736 81.072C193.736 81.2372 193.678 81.3774 193.563 81.4924C193.453 81.6026 193.31 81.6576 193.135 81.6576ZM199.892 82.2731C200.397 82.2731 200.798 82.4208 201.093 82.716C201.388 83.0064 201.536 83.4441 201.536 84.0297V86.3267H200.597V84.1498C200.597 83.7993 200.52 83.5366 200.365 83.3616C200.21 83.1814 199.987 83.0913 199.697 83.0913C199.381 83.0913 199.129 83.1964 198.938 83.4066C198.748 83.6117 198.653 83.9072 198.653 84.2924V86.3267H197.715V84.1498C197.715 83.7993 197.637 83.5366 197.482 83.3616C197.327 83.1814 197.104 83.0913 196.814 83.0913C196.494 83.0913 196.239 83.194 196.048 83.3991C195.863 83.6042 195.771 83.9021 195.771 84.2924V86.3267H194.832V82.3181H195.726V82.8286C195.876 82.6484 196.063 82.5109 196.289 82.4157C196.514 82.3205 196.764 82.2731 197.039 82.2731C197.339 82.2731 197.605 82.3308 197.835 82.4458C198.07 82.556 198.255 82.7211 198.39 82.9412C198.556 82.731 198.768 82.5682 199.028 82.4533C199.289 82.3332 199.576 82.2731 199.892 82.2731ZM204.957 82.2731C205.347 82.2731 205.695 82.3581 206 82.5283C206.311 82.6986 206.553 82.9388 206.728 83.249C206.904 83.5591 206.991 83.9171 206.991 84.3224C206.991 84.7278 206.904 85.0881 206.728 85.4034C206.553 85.7136 206.311 85.9538 206 86.124C205.695 86.2943 205.347 86.3793 204.957 86.3793C204.416 86.3793 203.988 86.1991 203.673 85.8388V87.783H202.735V82.3181H203.628V82.8436C203.783 82.6536 203.973 82.5109 204.199 82.4157C204.429 82.3205 204.682 82.2731 204.957 82.2731ZM204.852 85.576C205.197 85.576 205.48 85.4611 205.7 85.2307C205.925 85.0004 206.038 84.6978 206.038 84.3224C206.038 83.9471 205.925 83.6444 205.7 83.4141C205.48 83.1838 205.197 83.0688 204.852 83.0688C204.626 83.0688 204.424 83.1214 204.244 83.2265C204.063 83.3264 203.921 83.4718 203.816 83.6618C203.711 83.8519 203.658 84.0723 203.658 84.3224C203.658 84.5725 203.711 84.793 203.816 84.983C203.921 85.1731 204.063 85.3208 204.244 85.4259C204.424 85.5259 204.626 85.576 204.852 85.576ZM207.881 80.7568H208.82V86.3267H207.881V80.7568ZM210.051 82.3181H210.989V86.3267H210.051V82.3181ZM210.524 81.6576C210.354 81.6576 210.211 81.605 210.096 81.4999C209.981 81.3897 209.923 81.2546 209.923 81.0946C209.923 80.9345 209.981 80.8018 210.096 80.6967C210.211 80.5865 210.354 80.5316 210.524 80.5316C210.694 80.5316 210.837 80.5841 210.952 80.6892C211.067 80.7892 211.124 80.9168 211.124 81.072C211.124 81.2372 211.067 81.3774 210.952 81.4924C210.842 81.6026 210.699 81.6576 210.524 81.6576ZM213.85 81.4624C213.455 81.4624 213.257 81.6777 213.257 82.108V82.3482H214.36V83.0988H213.287V86.3267H212.348V83.0988H211.688V82.3482H212.348V82.0929C212.348 81.6627 212.474 81.3249 212.724 81.0795C212.974 80.8294 213.327 80.7042 213.782 80.7042C214.142 80.7042 214.425 80.7769 214.63 80.9219L214.368 81.6275C214.208 81.5173 214.035 81.4624 213.85 81.4624ZM218.818 82.3181L216.942 86.6495C216.767 87.0849 216.554 87.3903 216.304 87.5653C216.054 87.7455 215.751 87.8356 215.395 87.8356C215.195 87.8356 214.998 87.8031 214.802 87.738C214.607 87.6728 214.447 87.5827 214.322 87.4677L214.697 86.7771C214.787 86.8621 214.892 86.9296 215.013 86.9798C215.138 87.0299 215.263 87.0549 215.388 87.0549C215.553 87.0549 215.688 87.0122 215.793 86.9272C215.903 86.8423 216.003 86.6997 216.094 86.4994L216.161 86.3417L214.412 82.3181H215.388L216.649 85.2833L217.918 82.3181H218.818ZM219.405 82.3181H220.343V86.3267H219.405V82.3181ZM219.878 81.6576C219.708 81.6576 219.565 81.605 219.45 81.4999C219.335 81.3897 219.277 81.2546 219.277 81.0946C219.277 80.9345 219.335 80.8018 219.45 80.6967C219.565 80.5865 219.708 80.5316 219.878 80.5316C220.048 80.5316 220.191 80.5841 220.306 80.6892C220.421 80.7892 220.478 80.9168 220.478 81.072C220.478 81.2372 220.421 81.3774 220.306 81.4924C220.196 81.6026 220.053 81.6576 219.878 81.6576ZM223.849 82.2731C224.355 82.2731 224.76 82.4208 225.065 82.716C225.371 83.0111 225.523 83.4493 225.523 84.0297V86.3267H224.585V84.1498C224.585 83.7993 224.502 83.5366 224.337 83.3616C224.172 83.1814 223.937 83.0913 223.632 83.0913C223.286 83.0913 223.014 83.1964 222.813 83.4066C222.613 83.6117 222.513 83.9096 222.513 84.2999V86.3267H221.575V82.3181H222.468V82.8361C222.623 82.6508 222.818 82.5109 223.054 82.4157C223.289 82.3205 223.554 82.2731 223.849 82.2731ZM230.729 82.3181V85.7187C230.729 87.1299 230.008 87.8356 228.567 87.8356C228.182 87.8356 227.816 87.7854 227.471 87.6854C227.126 87.5902 226.84 87.4503 226.615 87.265L227.036 86.5594C227.211 86.7044 227.431 86.8198 227.696 86.9047C227.966 86.9948 228.239 87.0398 228.514 87.0398C228.955 87.0398 229.278 86.9399 229.483 86.7396C229.688 86.5393 229.791 86.2342 229.791 85.8238V85.6136C229.63 85.7886 229.435 85.9214 229.205 86.0114C228.975 86.1015 228.722 86.1465 228.447 86.1465C228.067 86.1465 227.721 86.0664 227.411 85.9063C227.106 85.7412 226.863 85.5109 226.683 85.2157C226.508 84.9206 226.42 84.5828 226.42 84.2023C226.42 83.8219 226.508 83.4868 226.683 83.1964C226.863 82.9013 227.106 82.6733 227.411 82.5133C227.721 82.3533 228.067 82.2731 228.447 82.2731C228.737 82.2731 229 82.3205 229.235 82.4157C229.475 82.5109 229.675 82.6559 229.836 82.8511V82.3181H230.729ZM228.589 85.3508C228.945 85.3508 229.235 85.2457 229.46 85.0356C229.691 84.8203 229.805 84.5425 229.805 84.2023C229.805 83.8669 229.691 83.5943 229.46 83.3841C229.235 83.1739 228.945 83.0688 228.589 83.0688C228.229 83.0688 227.934 83.1739 227.704 83.3841C227.478 83.5943 227.366 83.8669 227.366 84.2023C227.366 84.5425 227.478 84.8203 227.704 85.0356C227.934 85.2457 228.229 85.3508 228.589 85.3508ZM235.193 81.8978H233.452V81.072H237.911V81.8978H236.169V86.3267H235.193V81.8978ZM241.911 84.3449C241.911 84.4101 241.906 84.5026 241.896 84.6227H238.75C238.805 84.9178 238.948 85.1533 239.178 85.3283C239.413 85.4986 239.704 85.5836 240.049 85.5836C240.49 85.5836 240.852 85.4385 241.138 85.1482L241.64 85.7262C241.46 85.9415 241.233 86.1039 240.957 86.2141C240.682 86.3243 240.372 86.3793 240.027 86.3793C239.586 86.3793 239.198 86.2916 238.863 86.1165C238.528 85.9415 238.268 85.6985 238.082 85.3884C237.902 85.0731 237.812 84.7179 237.812 84.3224C237.812 83.9321 237.9 83.5817 238.075 83.2715C238.255 82.9562 238.503 82.7109 238.818 82.5358C239.133 82.3608 239.488 82.2731 239.884 82.2731C240.274 82.2731 240.622 82.3608 240.927 82.5358C241.237 82.7061 241.478 82.9487 241.648 83.264C241.823 83.5741 241.911 83.9345 241.911 84.3449ZM239.884 83.0238C239.584 83.0238 239.328 83.1139 239.118 83.294C238.913 83.4691 238.788 83.7045 238.743 83.9996H241.017C240.977 83.7093 240.855 83.4742 240.65 83.294C240.445 83.1139 240.189 83.0238 239.884 83.0238ZM244.651 86.3793C244.236 86.3793 243.863 86.2916 243.533 86.1165C243.203 85.9415 242.945 85.6985 242.76 85.3884C242.574 85.0731 242.482 84.7179 242.482 84.3224C242.482 83.927 242.574 83.5741 242.76 83.264C242.945 82.9538 243.2 82.7109 243.525 82.5358C243.856 82.3608 244.231 82.2731 244.651 82.2731C245.046 82.2731 245.392 82.3533 245.687 82.5133C245.988 82.6733 246.213 82.9037 246.363 83.2039L245.642 83.6243C245.527 83.439 245.382 83.3015 245.207 83.2114C245.037 83.1162 244.849 83.0688 244.644 83.0688C244.293 83.0688 244.003 83.1838 243.773 83.4141C243.543 83.6393 243.428 83.942 243.428 84.3224C243.428 84.7029 243.54 85.0079 243.766 85.2382C243.996 85.4634 244.288 85.576 244.644 85.576C244.849 85.576 245.037 85.531 245.207 85.4409C245.382 85.3457 245.527 85.2058 245.642 85.0205L246.363 85.4409C246.208 85.7412 245.98 85.9739 245.68 86.139C245.384 86.2991 245.042 86.3793 244.651 86.3793ZM249.412 82.2731C249.917 82.2731 250.323 82.4208 250.628 82.716C250.933 83.0111 251.086 83.4493 251.086 84.0297V86.3267H250.147V84.1498C250.147 83.7993 250.065 83.5366 249.9 83.3616C249.734 83.1814 249.499 83.0913 249.194 83.0913C248.849 83.0913 248.576 83.1964 248.376 83.4066C248.176 83.6117 248.075 83.9096 248.075 84.2999V86.3267H247.137V80.7568H248.075V82.7836C248.231 82.6184 248.421 82.4932 248.646 82.4082C248.876 82.3181 249.131 82.2731 249.412 82.2731Z" fill="#1C1B1F"/>
</svg>
