<svg width="585" height="132" viewBox="0 0 585 132" fill="none" xmlns="http://www.w3.org/2000/svg">
<g opacity="0.12">
<path opacity="0.111111" d="M88.9961 126.391C85.1834 121.326 100.993 86.8466 194.733 -10.5443C311.908 -132.283 417.531 -72.1433 409.972 -182.887C402.414 -293.63 535.349 -272.938 548.572 -343.265C559.149 -399.526 672.676 -405.617 728.117 -401.63" stroke="white" stroke-width="2"/>
<path opacity="0.222222" d="M78.8282 125.357C75.4715 119.978 94.2258 87.0082 196.097 -1.84217C323.437 -112.905 423.416 -43.7886 425.538 -154.769C427.661 -265.75 558.287 -233.551 577.588 -302.457C593.029 -357.583 706.654 -353.756 761.537 -344.952" stroke="white" stroke-width="2"/>
<path opacity="0.333333" d="M68.3344 123.857C65.4592 118.206 87.0156 86.9961 196.243 7.36251C332.778 -92.1794 426.353 -14.6122 438.14 -124.986C449.926 -235.359 577.249 -191.898 602.483 -258.86C622.669 -312.429 735.529 -298.714 789.435 -285.16" stroke="white" stroke-width="2"/>
<path opacity="0.444444" d="M57.5564 121.864C55.1846 115.985 79.3792 86.7724 195.132 16.9616C339.822 -70.3018 426.281 15.126 447.643 -93.8004C469.004 -202.727 592.055 -148.334 623.028 -212.841C647.807 -264.448 759.041 -240.948 811.561 -222.748" stroke="white" stroke-width="2"/>
<path opacity="0.555556" d="M46.5382 119.357C44.6879 113.293 71.3364 86.3007 192.733 26.8441C344.478 -47.4766 423.163 45.1614 453.936 -61.4886C484.71 -168.139 602.552 -103.228 639.03 -164.791C668.212 -214.041 776.975 -180.937 827.709 -158.228" stroke="white" stroke-width="2"/>
<path opacity="0.666667" d="M35.3257 116.316C34.011 110.114 62.9106 85.5465 189.027 36.8966C346.673 -23.9158 416.984 75.2274 456.935 -28.3346C496.887 -131.897 608.623 -56.9624 650.328 -115.112C683.691 -161.631 789.155 -119.173 837.717 -92.1295" stroke="white" stroke-width="2"/>
<path opacity="0.777778" d="M23.9661 112.726C23.1969 106.433 54.1278 84.4777 184.004 47.0047C346.35 0.163371 407.753 105.057 456.579 5.37142C505.405 -94.3145 610.184 -9.92699 656.798 -64.2203C694.089 -107.655 795.451 -56.1668 841.471 -24.9934" stroke="white" stroke-width="2"/>
<path opacity="0.888889" d="M12.5078 108.576C12.2901 102.24 45.0167 83.0642 177.665 57.0533C343.476 24.5396 395.502 134.386 452.831 39.3349C510.159 -55.7163 607.185 37.4823 658.354 -12.5418C699.288 -52.5611 795.777 7.56549 838.905 42.6312" stroke="white" stroke-width="2"/>
<path d="M1 103.86C1.33536 97.529 35.6087 81.2787 170.019 66.9279C338.033 48.9893 380.288 162.952 445.682 73.2591C511.076 -16.4338 599.61 84.8665 654.944 39.4924C699.211 3.1931 790.093 71.5004 830 110.192" stroke="white" stroke-width="2"/>
</g>
</svg>
