<svg width="32" height="32" viewBox="0 0 32 32" fill="none" xmlns="http://www.w3.org/2000/svg">
<path d="M31.0209 0.64833C30.9281 0.417149 30.7497 0.230655 30.5228 0.127645C30.296 0.0246353 30.0382 0.0130408 29.8031 0.0952737C29.5679 0.177507 29.3735 0.347235 29.2603 0.569151C29.1471 0.791066 29.1238 1.04808 29.1953 1.28673C30.6817 5.55873 27.7313 8.74913 25.4817 10.4579L24.5729 9.15553C24.2673 8.71873 23.5841 8.35553 23.0529 8.34913L17.9521 8.37153C17.329 8.39035 16.7225 8.5772 16.1969 8.91233L1.16648 19.4515C0.816868 19.6975 0.578987 20.0721 0.504917 20.4931C0.430847 20.9141 0.526624 21.3474 0.771276 21.6979L7.60168 31.4707C8.11368 32.1987 8.93128 32.1107 9.66088 31.6019L24.6913 21.0611C25.1233 20.7555 25.6225 20.0963 25.7985 19.5923L27.3953 14.5603C27.5713 14.0579 27.4641 13.2915 27.1585 12.8547L26.6049 12.0611C29.6257 9.74593 32.7617 5.65473 31.0209 0.64833ZM24.0273 15.6211C23.7504 15.815 23.438 15.9523 23.108 16.0254C22.778 16.0984 22.4368 16.1058 22.104 16.0469C21.7712 15.9881 21.4532 15.8642 21.1682 15.6825C20.8833 15.5007 20.6369 15.2645 20.4433 14.9875C20.0512 14.427 19.8975 13.7337 20.016 13.06C20.1345 12.3863 20.5154 11.7871 21.0753 11.3939C21.5142 11.0864 22.0382 10.9238 22.574 10.9286C23.1099 10.9335 23.6309 11.1057 24.0641 11.4211C23.6289 11.6835 23.3297 11.8371 23.2737 11.8611C23.0753 11.9557 22.915 12.1148 22.8189 12.3124C22.7229 12.5101 22.6968 12.7345 22.745 12.9488C22.7931 13.1632 22.9127 13.3549 23.084 13.4924C23.2554 13.63 23.4683 13.7053 23.6881 13.7059C23.8257 13.7059 23.9665 13.6739 24.0993 13.6115C24.4097 13.4643 24.7425 13.2899 25.0897 13.0835C25.1695 13.5636 25.1122 14.0565 24.9242 14.5055C24.7363 14.9544 24.4254 15.3411 24.0273 15.6211Z" fill="#6750A4"/>
</svg>
