<svg width="20" height="22" viewBox="0 0 20 22" fill="current" stroke="current" xmlns="http://www.w3.org/2000/svg">
<path d="M19.675 13.6648L18.1398 12.3523C18.2125 11.907 18.25 11.4523 18.25 10.9976C18.25 10.543 18.2125 10.0883 18.1398 9.64295L19.675 8.33045C19.7908 8.23133 19.8737 8.0993 19.9126 7.95193C19.9515 7.80456 19.9447 7.64883 19.893 7.50545L19.8719 7.44451C19.4492 6.26332 18.8164 5.16834 18.0039 4.21248L17.9617 4.16326C17.8631 4.04737 17.7318 3.96406 17.5849 3.92431C17.4381 3.88456 17.2826 3.89024 17.139 3.9406L15.2336 4.61795C14.5305 4.04138 13.7453 3.5867 12.8969 3.26795L12.5289 1.27576C12.5011 1.12586 12.4284 0.987951 12.3204 0.880361C12.2124 0.772772 12.0742 0.700593 11.9242 0.673413L11.8609 0.661694C10.6398 0.441382 9.35546 0.441382 8.13437 0.661694L8.07108 0.673413C7.92108 0.700593 7.78289 0.772772 7.67488 0.880361C7.56687 0.987951 7.49416 1.12586 7.4664 1.27576L7.09608 3.27732C6.25442 3.59614 5.47062 4.05059 4.77577 4.62264L2.85624 3.9406C2.71272 3.88984 2.55716 3.88396 2.41021 3.92373C2.26327 3.9635 2.13191 4.04704 2.03359 4.16326L1.9914 4.21248C1.17987 5.16902 0.547124 6.26382 0.12343 7.44451L0.102336 7.50545C-0.00313247 7.79842 0.0835863 8.12655 0.320305 8.33045L1.87421 9.65702C1.80155 10.0976 1.7664 10.5476 1.7664 10.9953C1.7664 11.4453 1.80155 11.8953 1.87421 12.3336L0.320305 13.6601C0.204514 13.7593 0.12164 13.8913 0.082705 14.0387C0.0437695 14.186 0.0506167 14.3418 0.102336 14.4851L0.12343 14.5461C0.547649 15.7273 1.17577 16.8172 1.9914 17.7781L2.03359 17.8273C2.13215 17.9432 2.26352 18.0265 2.41037 18.0663C2.55723 18.106 2.71268 18.1004 2.85624 18.05L4.77577 17.368C5.47421 17.9422 6.25468 18.3969 7.09608 18.7133L7.4664 20.7148C7.49416 20.8647 7.56687 21.0026 7.67488 21.1102C7.78289 21.2178 7.92108 21.29 8.07108 21.3172L8.13437 21.3289C9.36668 21.5504 10.6286 21.5504 11.8609 21.3289L11.9242 21.3172C12.0742 21.29 12.2124 21.2178 12.3204 21.1102C12.4284 21.0026 12.5011 20.8647 12.5289 20.7148L12.8969 18.7227C13.745 18.4047 14.5345 17.9486 15.2336 17.3726L17.139 18.05C17.2826 18.1008 17.4381 18.1066 17.5851 18.0669C17.732 18.0271 17.8634 17.9436 17.9617 17.8273L18.0039 17.7781C18.8195 16.8148 19.4476 15.7273 19.8719 14.5461L19.893 14.4851C19.9984 14.1969 19.9117 13.8687 19.675 13.6648ZM16.4758 9.91952C16.5344 10.2734 16.5648 10.6367 16.5648 11C16.5648 11.3633 16.5344 11.7265 16.4758 12.0805L16.3211 13.0203L18.0719 14.518C17.8064 15.1294 17.4714 15.7082 17.0734 16.243L14.8984 15.4719L14.1625 16.0766C13.6023 16.5359 12.9789 16.8969 12.3039 17.15L11.4109 17.4851L10.9914 19.7586C10.3295 19.8336 9.66115 19.8336 8.99921 19.7586L8.57968 17.4805L7.69374 17.1406C7.02577 16.8875 6.40468 16.5266 5.84921 16.0695L5.11327 15.4625L2.92421 16.2406C2.52577 15.7039 2.19296 15.125 1.92577 14.5156L3.6953 13.0039L3.54296 12.0664C3.48671 11.7172 3.45624 11.3562 3.45624 11C3.45624 10.6414 3.48437 10.2828 3.54296 9.93358L3.6953 8.99608L1.92577 7.48436C2.19062 6.87264 2.52577 6.29607 2.92421 5.75936L5.11327 6.53748L5.84921 5.93045C6.40468 5.47342 7.02577 5.11248 7.69374 4.85935L8.58202 4.5242L9.00155 2.24607C9.66015 2.17107 10.3328 2.17107 10.9937 2.24607L11.4133 4.51951L12.3062 4.85467C12.9789 5.10779 13.6047 5.46873 14.1648 5.92811L14.9008 6.53279L17.0758 5.7617C17.4742 6.29842 17.807 6.87733 18.0742 7.4867L16.3234 8.98436L16.4758 9.91952ZM9.99999 6.64061C7.72187 6.64061 5.87499 8.48748 5.87499 10.7656C5.87499 13.0437 7.72187 14.8906 9.99999 14.8906C12.2781 14.8906 14.125 13.0437 14.125 10.7656C14.125 8.48748 12.2781 6.64061 9.99999 6.64061ZM11.8562 12.6219C11.6128 12.866 11.3234 13.0596 11.0049 13.1916C10.6863 13.3235 10.3448 13.3912 9.99999 13.3906C9.29921 13.3906 8.64061 13.1164 8.14374 12.6219C7.89958 12.3784 7.70596 12.0891 7.57403 11.7705C7.4421 11.4519 7.37445 11.1104 7.37499 10.7656C7.37499 10.0648 7.64921 9.40623 8.14374 8.90936C8.64061 8.41248 9.29921 8.14061 9.99999 8.14061C10.7008 8.14061 11.3594 8.41248 11.8562 8.90936C12.1004 9.15282 12.294 9.44216 12.426 9.76073C12.5579 10.0793 12.6255 10.4208 12.625 10.7656C12.625 11.4664 12.3508 12.125 11.8562 12.6219Z" fill="current"/>
</svg>
