<svg width="17" height="16" viewBox="0 0 17 16" fill="none" xmlns="http://www.w3.org/2000/svg">
<path d="M4.8096 8.95501L10.4252 3.20323C10.4854 3.1416 10.9667 2.64859 11.7288 2.38155C12.7918 2.03233 13.8748 2.31992 14.7372 3.20323C15.6196 4.08654 15.8803 5.17527 15.5394 6.264C15.2987 7.0446 14.7973 7.57869 14.7372 7.64032L8.70041 13.8235C7.65751 14.8917 5.05027 16.268 2.64358 13.8235C0.256953 11.379 1.62074 8.68796 2.64358 7.64032L9.12158 0.984683C9.36224 0.738178 9.7433 0.738178 9.98397 0.984683C10.2246 1.23119 10.2246 1.62149 9.98397 1.86799L3.52603 8.52363C3.42576 8.6058 1.40013 10.7627 3.52603 12.9402C5.59177 15.056 7.6174 13.1661 7.83801 12.9402L13.8748 6.73647C13.8748 6.73647 14.2157 6.38725 14.3762 5.89424C14.5767 5.23689 14.4363 4.66172 13.8748 4.08654C12.6714 2.85401 11.5082 3.88112 11.2876 4.08654L5.67199 9.81778C5.47144 10.0232 5.33105 10.3724 5.67199 10.7216C6.01294 11.0708 6.33383 10.9065 6.53439 10.7216L10.4252 6.73647C10.6659 6.5105 11.067 6.5105 11.2876 6.73647C11.5283 6.98297 11.5283 7.39381 11.2876 7.64032L7.39679 11.6049C6.85528 12.139 5.75222 12.5704 4.8096 11.6049C3.84692 10.6395 4.26809 9.48911 4.8096 8.95501Z" fill="white"/>
</svg>
