<svg width="24" height="24" viewBox="0 0 24 24" fill="current" xmlns="http://www.w3.org/2000/svg">
<path d="M12.71 2.28994C12.617 2.19621 12.5064 2.12182 12.3846 2.07105C12.2627 2.02028 12.132 1.99414 12 1.99414C11.868 1.99414 11.7373 2.02028 11.6154 2.07105C11.4936 2.12182 11.383 2.19621 11.29 2.28994L2.29 11.2899C2.19627 11.3829 2.12188 11.4935 2.07111 11.6154C2.02034 11.7372 1.9942 11.8679 1.9942 11.9999C1.9942 12.132 2.02034 12.2627 2.07111 12.3845C2.12188 12.5064 2.19627 12.617 2.29 12.7099C2.38344 12.8026 2.49426 12.8759 2.61609 12.9257C2.73793 12.9755 2.86839 13.0007 3 12.9999H4V19.9999C4 20.5304 4.21071 21.0391 4.58579 21.4142C4.96086 21.7892 5.46957 21.9999 6 21.9999H18C18.5304 21.9999 19.0391 21.7892 19.4142 21.4142C19.7893 21.0391 20 20.5304 20 19.9999V12.9999H21C21.2652 12.9999 21.5196 12.8946 21.7071 12.707C21.8946 12.5195 22 12.2652 22 11.9999C22.0008 11.8683 21.9755 11.7379 21.9258 11.616C21.876 11.4942 21.8027 11.3834 21.71 11.2899L12.71 2.28994ZM6 19.9999V10.4099L12 4.40994L18 10.4099V19.9999H6Z" fill="current"/>
</svg>
