<svg width="16" height="20" viewBox="0 0 16 20" fill="current" xmlns="http://www.w3.org/2000/svg">
<path d="M0.800049 2.79999V17.2C0.800049 17.8365 1.05291 18.447 1.50299 18.897C1.95308 19.3471 2.56353 19.6 3.20005 19.6H14.6C14.7592 19.6 14.9118 19.5368 15.0243 19.4243C15.1368 19.3117 15.2 19.1591 15.2 19C15.2 18.8409 15.1368 18.6882 15.0243 18.5757C14.9118 18.4632 14.7592 18.4 14.6 18.4H3.20005C2.88179 18.4 2.57656 18.2736 2.35152 18.0485C2.12648 17.8235 2.00005 17.5183 2.00005 17.2H14C14.3183 17.2 14.6235 17.0736 14.8486 16.8485C15.0736 16.6235 15.2 16.3183 15.2 16V2.79999C15.2 2.16347 14.9472 1.55302 14.4971 1.10294C14.047 0.65285 13.4366 0.399994 12.8 0.399994H3.20005C2.56353 0.399994 1.95308 0.65285 1.50299 1.10294C1.05291 1.55302 0.800049 2.16347 0.800049 2.79999ZM12.8 1.59999C13.1183 1.59999 13.4235 1.72642 13.6486 1.95147C13.8736 2.17651 14 2.48173 14 2.79999V16H2.00005V2.79999C2.00005 2.48173 2.12648 2.17651 2.35152 1.95147C2.57656 1.72642 2.88179 1.59999 3.20005 1.59999H12.8ZM8.00005 5.19999C7.04527 5.19999 6.1296 5.57928 5.45446 6.25441C4.77933 6.92954 4.40005 7.84521 4.40005 8.79999C4.40005 9.75477 4.77933 10.6704 5.45446 11.3456C6.1296 12.0207 7.04527 12.4 8.00005 12.4C8.95483 12.4 9.8705 12.0207 10.5456 11.3456C11.2208 10.6704 11.6 9.75477 11.6 8.79999C11.6 7.84521 11.2208 6.92954 10.5456 6.25441C9.8705 5.57928 8.95483 5.19999 8.00005 5.19999ZM3.20005 8.79999C3.20005 7.52695 3.70576 6.30606 4.60594 5.40588C5.50611 4.50571 6.72701 3.99999 8.00005 3.99999C9.27309 3.99999 10.494 4.50571 11.3942 5.40588C12.2943 6.30606 12.8 7.52695 12.8 8.79999C12.8 10.073 12.2943 11.2939 11.3942 12.1941C10.494 13.0943 9.27309 13.6 8.00005 13.6C6.72701 13.6 5.50611 13.0943 4.60594 12.1941C3.70576 11.2939 3.20005 10.073 3.20005 8.79999ZM8.00005 6.99999C8.00005 6.84086 7.93684 6.68825 7.82431 6.57573C7.71179 6.46321 7.55918 6.39999 7.40005 6.39999C7.24092 6.39999 7.08831 6.46321 6.97578 6.57573C6.86326 6.68825 6.80005 6.84086 6.80005 6.99999V9.39999C6.80005 9.55912 6.86326 9.71174 6.97578 9.82426C7.08831 9.93678 7.24092 9.99999 7.40005 9.99999H9.20005C9.35918 9.99999 9.51179 9.93678 9.62431 9.82426C9.73684 9.71174 9.80005 9.55912 9.80005 9.39999C9.80005 9.24086 9.73684 9.08825 9.62431 8.97573C9.51179 8.86321 9.35918 8.79999 9.20005 8.79999H8.00005V6.99999Z" fill="current"/>
</svg>
