<svg width="40" height="40" viewBox="0 0 40 40" fill="none" xmlns="http://www.w3.org/2000/svg">
<path d="M20 38.0886C20.6999 38.0725 21.3716 37.8093 21.8962 37.3457C22.4208 36.882 22.7646 36.2477 22.8667 35.555H17.0222C17.1272 36.2665 17.487 36.9157 18.0348 37.3818C18.5825 37.8478 19.2809 38.099 20 38.0886Z" fill="#B5B5B5"/>
<path d="M36.1222 30.9227C35.0508 29.9675 34.1127 28.8725 33.3334 27.6671C32.4825 26.0033 31.9725 24.1863 31.8334 22.3227V16.8338C31.8288 16.1671 31.7694 15.5018 31.6556 14.8449C30.781 14.6701 29.9405 14.3549 29.1667 13.9116C29.4617 14.8614 29.6115 15.8503 29.6111 16.8449V22.3338C29.7473 24.6071 30.3727 26.8243 31.4445 28.8338C32.2116 30.0493 33.1218 31.1685 34.1556 32.1671H5.70003C6.73381 31.1685 7.64403 30.0493 8.41114 28.8338C9.48293 26.8243 10.1083 24.6071 10.2445 22.3338V16.8338C10.2386 15.5479 10.4865 14.2734 10.9739 13.0835C11.4612 11.8935 12.1785 10.8113 13.0847 9.89895C13.9909 8.98658 15.0681 8.26192 16.2548 7.76645C17.4414 7.27099 18.7141 7.01446 20 7.01155C21.882 7.01305 23.7217 7.56961 25.2889 8.61155C25.1161 7.97709 25.0192 7.32439 25 6.6671V5.9671C23.8399 5.39639 22.5935 5.02098 21.3111 4.85599V3.45599C21.3111 3.06259 21.1549 2.68529 20.8767 2.40711C20.5985 2.12894 20.2212 1.97266 19.8278 1.97266C19.4344 1.97266 19.0571 2.12894 18.7789 2.40711C18.5007 2.68529 18.3445 3.06259 18.3445 3.45599V4.91155C15.473 5.31661 12.8451 6.74682 10.9458 8.93814C9.04655 11.1295 8.00417 13.9339 8.01114 16.8338V22.3227C7.87198 24.1863 7.362 26.0033 6.51114 27.6671C5.74545 28.8697 4.82247 29.9646 3.76669 30.9227C3.64817 31.0268 3.55318 31.155 3.48805 31.2986C3.42291 31.4423 3.38912 31.5982 3.38892 31.756V33.2671C3.38892 33.5618 3.50598 33.8444 3.71435 34.0528C3.92273 34.2612 4.20534 34.3782 4.50003 34.3782H35.3889C35.6836 34.3782 35.9662 34.2612 36.1746 34.0528C36.383 33.8444 36.5 33.5618 36.5 33.2671V31.756C36.4998 31.5982 36.466 31.4423 36.4009 31.2986C36.3358 31.155 36.2408 31.0268 36.1222 30.9227Z" fill="#B5B5B5"/>
<path d="M33.3334 12.2239C36.4016 12.2239 38.889 9.73636 38.889 6.66779C38.889 3.59922 36.4016 1.11166 33.3334 1.11166C30.2651 1.11166 27.7778 3.59922 27.7778 6.66779C27.7778 9.73636 30.2651 12.2239 33.3334 12.2239Z" fill="#345B63"/>
</svg>
