<svg width="120" height="120" viewBox="0 0 120 120" fill="none" xmlns="http://www.w3.org/2000/svg">
<g clip-path="url(#clip0_25_51)">
<path d="M24.36 69.859C24.36 69.2224 21.336 69.262 17.4 69.262C13.464 69.262 10.1196 70.1776 10.1196 70.8142C10.1196 71.4508 13.2996 71.968 17.241 71.968C21.1824 71.968 24.36 70.4956 24.36 69.859Z" fill="black"/>
<path d="M15.1269 56.6101C15.1269 56.5699 15.0867 56.5303 15.0867 56.4901C14.8083 55.6147 15.3657 55.4953 16.0815 55.8139C16.7181 56.0923 17.4741 57.0871 18.1503 56.9275C19.1451 56.6875 18.5103 55.5349 18.0711 55.0579C17.3151 54.1429 16.5591 53.3071 15.8829 52.3525C15.4449 51.7159 15.0471 50.8405 15.5643 50.2831C16.1643 49.6471 17.2353 50.1631 17.8323 50.7631C18.4287 51.3997 19.1847 52.1557 20.0205 51.9169C20.7363 50.8429 20.0205 49.4107 19.1055 48.5353C18.1905 47.6203 17.0367 46.8643 16.6383 45.6703C16.3599 44.8351 16.7181 43.6813 17.5935 43.5619C17.9136 43.5695 18.2242 43.6719 18.4862 43.856C18.7481 44.0401 18.9497 44.2977 19.0653 44.5963C19.2768 45.2041 19.5714 45.7798 19.9407 46.3069C20.3385 46.7869 21.1743 47.0629 21.6519 46.6255C21.7734 46.4853 21.8616 46.3194 21.9098 46.1402C21.9581 45.9611 21.9651 45.7733 21.9303 45.5911C21.7361 44.6216 21.2337 43.7408 20.4981 43.0801C19.7694 42.412 19.2102 41.5801 18.8667 40.6531C18.5883 39.6985 18.9867 38.5051 19.9011 38.2261C20.3585 38.139 20.8319 38.2253 21.2291 38.4682C21.6263 38.7112 21.9188 39.0932 22.0497 39.5401C22.3281 40.3357 22.3677 41.4895 23.2035 41.6485C23.9991 41.8075 24.5163 40.8529 24.5559 40.0573C24.6357 38.6251 23.9991 37.2325 23.8401 35.8003C23.6811 34.3681 24.1581 32.6203 25.5111 32.2195C26.6649 31.8595 27.9777 32.6995 28.4553 33.8107C28.8664 34.974 28.838 36.2476 28.3755 37.3915C27.9777 38.5453 27.4209 39.6595 27.0627 40.8115C26.9998 40.95 26.9705 41.1016 26.9774 41.2536C26.9843 41.4057 27.0271 41.5539 27.1023 41.6863C27.3807 42.0463 28.0173 41.8855 28.3359 41.5273C28.6545 41.1691 28.8159 40.6921 29.1711 40.4137C29.9271 39.8167 31.1607 40.4533 31.3995 41.4079C31.4769 41.8864 31.4212 42.377 31.2387 42.826C31.0562 43.2751 30.7538 43.6654 30.3645 43.9543C29.596 44.5299 28.77 45.0245 27.8997 45.4303C27.3033 45.7483 26.2689 46.3051 25.9899 46.9819C25.4331 48.3343 27.8997 46.9417 28.1781 46.7419C28.8549 46.2247 29.9289 45.8269 30.4857 46.5019C30.6057 46.6826 30.6762 46.8916 30.6902 47.108C30.7042 47.3245 30.6612 47.5408 30.5655 47.7355C29.6901 50.0827 25.7913 50.0827 24.9159 52.4299C25.5921 52.7485 26.3877 52.3099 27.0243 51.9127C27.6609 51.5155 28.5765 51.2365 29.1333 51.7537C30.2073 52.7881 28.8549 54.1009 27.9795 54.6979C26.7861 55.4935 24.8763 55.2979 24.0405 56.4487C23.9634 56.5241 23.9045 56.616 23.868 56.7174C23.8316 56.8189 23.8187 56.9274 23.8303 57.0346C23.8418 57.1418 23.8775 57.245 23.9347 57.3364C23.9919 57.4278 24.0691 57.505 24.1605 57.5623C24.4433 57.7077 24.7718 57.7364 25.0755 57.6421C26.0307 57.4831 27.1443 57.4429 27.1047 58.7959C27.1047 59.7109 26.3487 60.3475 25.6725 60.8647C24.2001 61.9789 21.0573 64.0477 19.1079 63.1327C17.0397 61.9801 15.7635 58.7185 15.1269 56.6101Z" fill="#FF465A"/>
<path d="M19.225 73.8769C17.872 66.0769 20.14 58.7983 22.3282 51.7561C24.0784 46.0669 25.909 40.1761 25.8292 34.0513H26.2672C26.3872 40.2577 24.5164 46.1461 22.7656 51.8755C20.5798 58.8781 18.3496 66.0793 19.702 73.8001L19.225 73.8769Z" fill="white"/>
<path d="M7.52734 64.7263C7.48224 64.6768 7.42833 64.6361 7.36834 64.6063C6.45334 63.7711 7.05034 63.2539 8.04454 63.1345C8.96014 63.0145 10.5117 63.6517 11.2275 63.0145C12.2619 62.0593 10.6707 61.1839 9.83494 60.8659C8.36314 60.3091 6.89074 59.8711 5.41894 59.2345C4.50394 58.8001 3.42934 58.0423 3.62854 57.0475C3.86854 55.8937 5.45854 55.7743 6.61234 56.0527C7.76614 56.3311 9.15874 56.7295 9.95434 55.8541C10.0341 54.1435 8.24374 52.9495 6.57274 52.5121C4.90174 52.0747 3.03274 51.9949 1.75834 50.8807C0.843343 50.0851 0.485143 48.4939 1.43974 47.7775C2.15614 47.2603 3.15034 47.5375 3.90634 47.9761C4.57913 48.535 5.31324 49.0157 6.09454 49.4089C6.93034 49.6873 8.04394 49.4485 8.28274 48.6127C8.32347 48.3594 8.30902 48.1003 8.24036 47.8531C8.1717 47.6059 8.05047 47.3765 7.88494 47.1805C7.08934 46.1065 5.77654 45.6289 4.50334 45.2311C3.23014 44.8333 1.91734 44.4751 0.963343 43.5601C0.00934303 42.6451 -0.389057 40.9741 0.483343 39.9793C1.31914 39.0643 2.95054 39.2233 3.90334 40.0591C4.77874 40.8151 5.61454 42.0883 6.68854 41.7301C7.72294 41.3701 7.68334 39.8995 7.16854 38.9449C6.25294 37.2343 4.62214 36.0403 3.42814 34.4887C2.23414 32.9371 1.63774 30.5887 2.91094 29.1577C4.02514 27.9241 6.09394 28.0039 7.40674 28.9981C8.668 30.0841 9.51205 31.5752 9.79414 33.2155C10.1541 34.8073 10.2321 36.4783 10.5897 38.1097C10.6054 38.3151 10.6717 38.5135 10.7828 38.687C10.8939 38.8605 11.0463 39.0037 11.2263 39.1039C11.8233 39.3439 12.4203 38.7061 12.5391 38.0695C12.5618 37.4424 12.6283 36.8177 12.7383 36.1999C13.2183 35.0059 15.0855 34.8865 16.0005 35.8021C16.9155 36.7177 16.9557 38.2285 16.5579 39.4621C16.0691 40.6706 15.4415 41.8183 14.6877 42.8821C14.2107 43.6777 13.3749 45.0307 13.5339 46.0249C13.8123 48.0145 15.7221 44.6725 15.9213 44.2345C16.3587 43.1605 17.3535 41.9671 18.4275 42.4045C18.6931 42.5357 18.9205 42.733 19.088 42.9774C19.2555 43.2217 19.3574 43.505 19.3839 43.8001C19.9809 47.1421 15.4449 49.7677 16.0017 53.1097C16.9965 53.0305 17.5935 51.9559 18.1107 51.0811C18.5907 50.2057 19.4631 49.2109 20.4183 49.4497C22.3677 49.9297 21.7311 52.3939 21.1347 53.6671C20.2989 55.3777 17.9547 56.4523 17.7147 58.4017C17.6797 58.5441 17.6766 58.6925 17.7056 58.8362C17.7345 58.98 17.7949 59.1156 17.8822 59.2334C17.9696 59.3511 18.082 59.4482 18.2112 59.5175C18.3404 59.5869 18.4833 59.6269 18.6297 59.6347C19.05 59.5973 19.4441 59.4144 19.7439 59.1175C20.7381 58.2823 22.0113 57.4867 22.9239 59.0383C23.5239 60.1123 23.0835 61.3855 22.6455 62.4199C21.6909 64.7275 19.4655 69.3031 16.5189 69.5419C13.4955 69.6997 9.75574 66.7159 7.52734 64.7263Z" fill="#FDB849"/>
<path d="M17.8719 75.9063C17.4927 73.7454 16.9473 71.6171 16.2405 69.5403C15.7605 67.9887 15.2463 66.3969 14.8881 64.8057C14.4501 62.8563 13.9329 60.8667 13.4157 58.9569C12.8957 57.0582 12.4182 55.1481 11.9835 53.2281L11.8635 52.6713C10.2327 45.3111 8.56346 37.6713 4.54346 31.1469L5.02346 30.8289C9.08186 37.4331 10.7529 45.1119 12.3837 52.5519L12.5037 53.1093C12.9417 55.0185 13.4589 56.9685 13.9359 58.7985C14.4531 60.7083 14.9703 62.6985 15.4083 64.6869C15.7747 66.2747 16.2262 67.8418 16.7607 69.3813C17.504 71.4772 18.0631 73.634 18.4317 75.827L17.8719 75.9063Z" fill="white"/>
<path d="M21.055 98.4651C22.4872 88.5981 22.9648 79.7655 24.355 69.8589C19.8958 71.9765 14.7878 72.2762 10.1116 70.6947C11.7826 79.5669 13.2916 89.9511 14.965 98.8233C16.4794 100.335 19.4632 100.136 21.055 98.4651Z" fill="#643CFF"/>
<path d="M49.4619 47.9759C54.5129 38.4535 62.8356 31.0778 72.8961 27.2081C79.1427 24.8207 86.1447 23.9081 92.5503 25.8155C101.144 28.4015 107.59 35.8415 111.171 44.0375C114.752 52.2335 115.905 61.3043 116.979 70.2167C117.855 77.2193 118.69 84.1817 119.565 91.1837C120.162 96.1571 120.639 101.767 117.457 105.666C115.507 108.053 112.563 109.326 109.619 110.242C102.02 112.629 93.9831 113.027 86.0655 113.345C67.0479 114.061 48.0301 114.181 29.0121 113.705C23.1633 113.546 16.9965 113.267 12.1425 110.005C10.0341 108.572 8.2041 106.543 7.6071 104.037C7.1271 102.008 7.5273 99.8591 8.1639 97.8299C11.9043 86.0933 23.2035 78.8519 32.2347 70.4171C40.2908 62.8717 46.8626 53.8844 51.6105 43.9199" fill="#14D29B"/>
<path d="M119.526 91.1842C118.65 84.1822 117.814 77.2198 116.94 70.2172C115.865 61.3048 114.711 52.2736 111.13 44.038C108.783 38.6272 105.163 33.5344 100.51 29.9932C101.538 31.5445 102.43 33.1818 103.176 34.8868C105.405 40.0594 106.439 45.6694 107.115 51.1996C107.56 54.8297 107.785 58.4833 107.791 62.1406C107.791 64.846 108.349 69.2206 106.081 71.212C105.648 71.5915 105.143 71.8789 104.596 72.0568C104.049 72.2346 103.471 72.2991 102.898 72.2464C103.668 72.7314 104.234 73.4813 104.489 74.3548C107.195 81.079 103.137 89.0758 99.8343 94.9246C97.0095 99.9772 92.9943 104.274 87.6201 106.661C85.1931 107.775 67.4085 113.664 68.4831 106.383C68.4015 107.242 68.1996 108.086 67.8831 108.889C67.2465 110.322 66.2121 110.72 64.7403 110.839C56.1335 111.614 47.4711 111.534 38.8803 110.599C36.0555 110.28 33.1911 109.923 30.4059 109.445C27.8991 109.047 25.0743 108.49 23.0451 106.899C22.1301 106.182 21.4143 105.188 21.6531 103.994C21.8517 102.84 23.2047 101.806 22.3293 100.613C21.5733 99.5782 19.9023 99.3394 18.7893 98.902C17.7641 98.5053 16.7555 98.0671 15.7659 97.5886C13.7367 96.634 11.3493 95.4406 10.0365 93.5308L9.99685 93.4906C9.26502 94.8818 8.65262 96.3326 8.16625 97.8274C7.52965 99.817 7.13185 101.967 7.60945 104.034C8.20645 106.541 9.99685 108.57 12.1449 110.002C16.9989 113.265 23.1657 113.583 29.0145 113.702C48.0321 114.18 67.0499 114.06 86.0679 113.342C94.0251 113.024 102.062 112.626 109.621 110.239C112.565 109.324 115.509 108.051 117.459 105.663C120.6 101.768 120.162 96.1576 119.526 91.1842Z" fill="#008C6E"/>
<path d="M44.8871 87.5239C43.396 88.2013 42.1666 89.3467 41.3855 90.7861C40.8683 91.7809 40.5503 92.8951 39.7547 93.6907C38.0837 95.3221 35.0993 94.7647 33.3887 96.3163C36.0545 95.7595 38.7995 96.5563 41.3087 97.6297C43.8179 98.7031 46.2419 99.9769 48.9473 100.455C52.1273 101.011 55.3931 100.335 58.6553 100.095C61.9175 99.8545 65.4191 100.215 67.8461 102.402C67.5677 99.4975 69.5963 96.8719 72.0233 95.2405C74.4503 93.6091 77.2751 92.5747 79.5035 90.6649C82.9235 87.7609 84.4763 83.2651 86.3069 79.1671C88.1375 75.0691 90.2855 71.2099 94.5821 69.6583C92.5931 69.4591 91.3991 68.8621 90.4421 67.2313C89.4875 65.6395 89.2883 63.6913 89.2085 61.7803C89.0427 58.5578 89.096 55.3278 89.3681 52.1125C89.8055 48.7303 90.9989 44.9509 88.5323 43.4785C84.1163 40.8529 69.1565 47.8153 66.7295 52.6297C63.5069 58.9555 63.4295 66.4753 60.4433 72.8809C57.3797 79.3279 51.3719 84.5797 44.8871 87.5239Z" fill="#008C6E"/>
<path d="M49.4619 47.976C49.8219 47.2602 50.2581 46.584 50.6559 45.8676C50.9739 45.231 51.2925 44.5548 51.6105 43.9182L49.4619 47.976Z" fill="#14D29B"/>
<path d="M60.4429 90.7467C60.9229 92.6169 61.4377 94.5267 62.5513 96.0783C63.0691 96.7545 63.7453 97.55 63.4669 98.3858C63.2269 99.221 62.1937 99.4995 61.3579 99.8181C59.4481 100.534 57.9763 102.046 56.4247 103.358C54.8329 104.671 52.8847 105.785 50.8543 105.427C50.7447 105.415 50.6386 105.38 50.5428 105.326C50.447 105.271 50.3635 105.197 50.2975 105.109C50.0575 104.711 50.5375 104.313 50.8975 104.074C52.8865 102.682 53.7223 100.215 55.1545 98.2659C55.7266 97.603 56.2082 96.8672 56.5867 96.0776C57.2629 94.4462 56.6665 92.6162 56.1067 90.9452C57.062 90.6412 58.0506 90.4541 59.0509 90.3878C59.2951 90.3493 59.5447 90.3612 59.7841 90.4229C60.0235 90.4847 60.2478 90.5948 60.4429 90.7467Z" fill="#9778FF"/>
<path d="M50.6956 90.3489C50.7754 92.2587 50.8546 94.2489 51.6106 95.9985C51.9706 96.7941 52.4464 97.7091 52.0084 98.4651C51.5704 99.2211 50.4964 99.2607 49.6216 99.3801C47.5924 99.6591 45.8416 100.853 44.0116 101.768C42.1816 102.683 40.033 103.399 38.1628 102.603C38.0606 102.572 37.9657 102.521 37.8838 102.452C37.8018 102.384 37.7345 102.3 37.6858 102.205C37.5658 101.768 38.0836 101.489 38.521 101.29C40.7488 100.375 42.1018 98.1069 43.9318 96.5157C44.6218 95.9777 45.2491 95.3639 45.802 94.6857C46.7968 93.2535 46.6372 91.3035 46.4386 89.5929C47.4471 89.4934 48.4645 89.5338 49.462 89.7129C49.9395 89.7589 50.3812 89.9866 50.6956 90.3489Z" fill="#643CFF"/>
<path d="M65.456 12.2089C65.1765 11.7779 64.9959 11.2904 64.9271 10.7814C64.8583 10.2723 64.9031 9.75437 65.0582 9.26467C65.4557 8.19897 66.2358 7.31944 67.2464 6.79747C68.6424 6.03079 70.276 5.81787 71.822 6.20107C73.367 6.59441 74.7128 7.54352 75.602 8.86687C76.517 10.2589 76.796 12.2485 75.722 13.5613C74.9264 14.5561 73.5338 14.8741 72.2606 14.9143C70.151 14.9143 66.7292 14.1181 65.456 12.2089Z" fill="black"/>
<path d="M65.0583 12.9642C66.4509 11.6916 68.5593 11.5722 70.3497 12.129C71.3999 12.4212 72.3408 13.0161 73.0551 13.8396C73.4088 14.2489 73.6585 14.7375 73.7832 15.2639C73.9079 15.7904 73.9039 16.3391 73.7715 16.8636C73.6247 17.3824 73.3116 17.8386 72.8803 18.1621C72.4489 18.4856 71.9232 18.6584 71.3841 18.654C70.9136 18.6009 70.456 18.4662 70.0317 18.2562C68.4703 17.5281 66.9554 16.7041 65.4957 15.789C64.3419 15.0732 63.8649 14.04 65.0583 12.9642Z" fill="#D70A32"/>
<path d="M52.9636 25.8157C53.1184 24.0604 53.6498 22.3591 54.5218 20.8279C55.3937 19.2967 56.5856 17.9716 58.0162 16.9429C59.4839 15.9077 61.1509 15.1892 62.9113 14.8331C64.6716 14.4769 66.4868 14.4909 68.2414 14.8741C69.2262 15.0643 70.1693 15.4282 71.0266 15.9487C72.3664 16.8671 73.4484 18.1135 74.1694 19.5691C75.0483 21.1858 75.666 22.9314 75.9994 24.7411C76.3508 26.7138 76.3644 28.7319 76.0396 30.7093C75.9594 31.468 75.6613 32.1873 75.1812 32.7804C74.7011 33.3734 74.0597 33.8148 73.3342 34.0513C71.639 34.661 69.7867 34.675 68.0824 34.0909C64.3024 32.8579 60.2824 31.9423 56.6224 30.3907C55.5484 29.9107 54.3148 29.5555 53.599 28.6003C53.0291 27.7918 52.8008 26.7913 52.9636 25.8157Z" fill="black"/>
<path d="M41.8629 34.8075C42.8181 32.6589 44.8467 31.3875 47.3139 30.1923C49.4544 29.1988 51.7984 28.722 54.1569 28.8003C54.2757 29.3853 54.4489 29.958 54.6741 30.5109C50.4567 32.7789 45.4833 34.7679 41.9823 38.0709C40.2717 36.3195 38.6397 34.6083 36.8499 32.9403C36.6964 31.5793 36.6831 30.206 36.8103 28.8423C37.5019 28.9336 38.1669 29.168 38.7629 29.5306C39.3589 29.8932 39.8727 30.376 40.2717 30.9483C41.2056 32.0287 41.764 33.3828 41.8629 34.8075Z" fill="#FDB849"/>
<path d="M76.0801 45.6289C73.8064 41.7375 72.4967 37.3586 72.2605 32.8579C72.1405 33.6133 71.4253 34.0117 70.8679 34.5685C69.5933 35.6772 68.2368 36.688 66.8101 37.5925C67.9492 41.1261 68.7354 44.7639 69.1573 48.4525C70.4227 48.8317 71.777 48.7896 73.0165 48.3325C74.3287 47.8573 75.2839 46.7431 76.0801 45.6289Z" fill="black"/>
<path d="M85.8664 73.0417C86.3044 64.2091 86.5432 58.9177 86.9806 50.1217C87.1006 47.6947 87.2206 45.2281 86.5006 42.9217C85.7806 40.6153 84.0736 38.4655 81.7264 37.8691C78.9412 37.1923 76.1566 38.8237 73.6864 40.2961C71.2162 41.7685 68.1562 43.1209 65.5702 41.8873C64.3366 41.2873 63.8992 39.6595 62.6656 39.0625C61.5118 38.4625 60.04 38.9425 59.0848 39.8185C58.1756 40.7663 57.4952 41.9094 57.0958 43.1605C52.6798 54.3403 53.4754 60.1891 56.3002 71.8861C58.096 72.8827 76.5166 73.7179 85.8664 73.0417Z" fill="#643CFF"/>
<path d="M69.2759 72.7634C69.1169 71.7686 68.3609 70.4156 68.0027 69.4634C68.0423 69.5432 71.1059 69.5432 71.8223 69.5432C76.1987 69.6632 80.8139 69.9032 84.6731 72.0098C85.2701 72.3278 85.9859 72.6464 85.8665 73.2032C85.7075 73.8398 84.9911 73.9592 84.4739 73.9592C81.9621 73.9647 79.4519 73.8319 76.9547 73.5614C75.6815 73.4414 74.4083 73.3622 73.1351 73.2014C72.7373 73.1612 69.3155 72.9602 69.2759 72.7634Z" fill="black"/>
<path d="M48.9051 53.9048C47.9103 50.7248 43.9317 49.0904 40.7487 50.0456C37.5657 51.0008 35.2587 53.9456 34.3035 57.167C33.3483 60.3884 33.7467 64.367 34.6221 67.5908C37.4469 78.254 39.7941 84.341 43.6137 93.3308C45.9213 94.5644 50.5365 93.848 52.6851 92.5352C52.1277 86.4878 51.4911 83.9018 50.8545 79.2068C50.2179 74.5118 50.6559 71.1302 48.9849 66.674C50.2116 62.502 50.1839 58.0612 48.9051 53.9048Z" fill="#D70A32"/>
<path d="M57.66 36.8762C58.1315 37.8936 58.8104 38.8014 59.6531 39.5413C60.4958 40.2812 61.4837 40.8369 62.5536 41.1728C64.8612 41.8094 66.4536 41.4128 68.4822 40.298C70.1612 39.2988 71.5484 37.8762 72.5049 36.1725C73.4615 34.4688 73.9538 32.5437 73.9326 30.59C73.7337 27.1762 72.9394 23.8235 71.5854 20.6834C70.7898 18.8528 68.6016 18.0968 66.7314 17.6594C63.27 16.8638 57.9384 16.9832 56.2278 20.723C54.8352 23.7068 54.915 27.803 55.5912 30.908C56.0035 32.9829 56.6996 34.9912 57.66 36.8762Z" fill="#F7846C"/>
<path d="M57.937 21.5184C58.5768 21.0195 59.3386 20.7011 60.1431 20.5962C60.9477 20.4913 61.7656 20.6038 62.512 20.922C63.055 20.6897 63.6496 20.6042 64.2362 20.674C64.8227 20.7438 65.3806 20.9665 65.854 21.3198C66.7072 21.8912 67.3826 22.6908 67.8034 23.6274C68.2834 24.5424 68.5996 25.5768 69.1564 26.4522C69.3825 26.8661 69.689 27.2306 70.058 27.5244C70.427 27.8181 70.8509 28.0352 71.305 28.1628C72.1402 28.362 73.453 28.1628 73.9708 27.4866C73.891 25.2186 73.0552 23.1894 72.1006 21.1206C71.6876 20.1068 70.9255 19.2742 69.952 18.7734C68.9168 18.1952 67.8233 17.7284 66.6898 17.3808C63.2284 16.5852 57.5788 16.7442 55.8298 20.5236C55.2436 22.1341 54.9081 23.825 54.835 25.5372C55.5082 23.9543 56.5762 22.5706 57.937 21.5184Z" fill="black"/>
<path d="M60.8014 29.9136C60.1252 29.1576 58.8916 28.1628 57.8572 28.2822C56.8228 28.4016 55.9078 28.998 55.5496 30.51C55.5496 30.51 56.3056 31.107 58.0558 30.948C59.0524 30.8791 60.007 30.5194 60.8014 29.9136ZM68.6788 29.1174C68.0026 28.362 66.769 27.3672 65.7346 27.4866C64.7002 27.606 63.7852 28.2024 63.427 29.7144C63.427 29.7144 64.183 30.3114 65.9338 30.1518C66.9303 30.0833 67.8848 29.7236 68.6788 29.1174Z" fill="white"/>
<path d="M58.1752 28.2822H57.8572C56.8228 28.4022 55.9078 28.998 55.5496 30.51C55.5496 30.51 56.3056 31.107 58.0558 30.948C58.3645 30.9174 58.6705 30.8641 58.9714 30.7884C58.6052 29.9884 58.3379 29.1468 58.1752 28.2822ZM66.0928 27.4866H65.695C64.6606 27.6066 63.7456 28.2024 63.3874 29.7144C63.3874 29.7144 64.1434 30.3114 65.8942 30.1518C66.2032 30.1251 66.5093 30.0719 66.8092 29.9928C66.4559 29.1944 66.2148 28.351 66.0928 27.4866Z" fill="black"/>
<path d="M61.6368 52.1537C56.9913 51.4676 52.2519 51.8071 47.7516 53.1485C47.0297 52.9868 46.2991 52.8666 45.5634 52.7885C45.0029 51.2985 44.1353 49.9429 43.017 48.8099C42.777 48.5699 42.6192 48.3725 42.3804 48.1733C40.7094 42.2453 38.1234 36.5933 35.4978 31.0253C35.7492 30.3658 36.159 29.7783 36.6912 29.3147C37.9805 29.6939 39.1426 30.416 40.0535 31.404C40.9644 32.3921 41.5899 33.6089 41.8632 34.9247C43.321 32.9219 45.3861 31.4428 47.7516 30.7073C50.0592 29.9117 52.5258 29.7125 54.993 29.4737C56.3489 30.0883 57.4468 31.1582 58.0962 32.4977C61.0404 38.4275 60.72 45.6287 61.6368 52.1537Z" fill="white"/>
<path d="M66.5701 35.0459C66.1756 35.7275 65.6479 36.3227 65.0185 36.7961C64.7255 37.0262 64.3861 37.19 64.0237 37.2761C63.6489 37.3886 63.2514 37.4022 62.8699 37.3157C62.6672 37.243 62.4787 37.1353 62.3131 36.9977C62.0578 36.7957 61.8534 36.5368 61.7161 36.2417C63.2782 35.6432 64.9087 35.2415 66.5701 35.0459Z" fill="#DD4040"/>
<path d="M62.3531 34.8073C61.6367 34.8865 60.8015 35.0857 60.4829 35.5231C60.2843 35.7631 60.5627 36.2791 60.9629 36.3985C61.1463 36.4333 61.3332 36.4468 61.5197 36.4387C62.6449 36.2913 63.7511 36.0244 64.8197 35.6425C65.3771 35.4835 66.6497 35.1253 66.8489 34.8469C65.6153 35.1253 63.7457 34.6879 62.3531 34.8073Z" fill="black"/>
<path d="M48.0298 57.3259C53.0032 54.0259 57.7378 52.5913 63.5098 54.1033C61.759 45.4303 60.7648 40.2979 58.855 32.3407C53.0458 29.9137 45.049 33.2953 42.3436 36.2791C41.7436 36.1999 41.0704 36.0391 40.4734 35.9611C40.1789 35.1189 39.7341 34.337 39.1606 33.6535C38.5784 32.8656 37.8963 32.1567 37.1314 31.5445C36.3587 30.9331 35.4108 30.5847 34.426 30.5503C37.3174 36.588 39.6214 42.8898 41.3062 49.3687C42.9376 49.9261 43.8526 51.4777 44.5684 53.0287C45.1328 54.1777 45.5474 55.3945 45.802 56.6491C46.5312 56.9166 47.275 57.1426 48.0298 57.3259Z" fill="#FFD340"/>
<path d="M44.3294 44.6744C44.0487 43.744 43.8099 42.8015 43.6136 41.8496C43.4546 41.1332 43.2536 40.4174 43.0964 39.701C42.7778 39.701 42.4964 39.6614 42.1814 39.6614C42.38 40.3376 42.5792 41.0138 42.7382 41.6504C42.9782 42.6452 43.2554 43.5998 43.5338 44.5946C43.7738 45.5096 44.0138 46.4648 44.2898 47.3798C44.5503 48.132 44.7509 48.9036 44.8898 49.6874C45.1804 49.6545 45.4728 49.6413 45.7652 49.6478C45.563 48.8918 44.5682 45.5498 44.3294 44.6744ZM55.589 35.2448C53.852 34.7624 52.0261 34.6944 50.258 35.0462C49.1944 35.2868 48.1833 35.7182 47.2736 36.3194C46.6071 36.6883 45.9919 37.143 45.4436 37.6718C46.637 40.8944 47.393 44.2766 48.308 47.5784C49.7463 46.382 51.4516 45.5495 53.2796 45.1514C54.975 44.7612 56.7131 44.5874 58.4522 44.6342C57.4592 41.531 56.4644 38.3882 55.589 35.2448Z" fill="#008C6E"/>
<path d="M45.2049 53.1093C44.6481 50.1249 40.5104 35.9211 40.4702 35.9211C40.1754 35.079 39.7307 34.2972 39.1575 33.6135C38.575 32.8259 37.8929 32.1172 37.1283 31.5051C36.3558 30.8931 35.4077 30.5445 34.4229 30.5103C37.3153 36.5481 39.6203 42.8501 41.3061 49.3293C42.9375 49.8861 43.8525 51.4377 44.5682 52.9893C45.1012 54.0776 45.5021 55.2257 45.7623 56.4093C45.5631 55.3371 45.4041 54.2229 45.2049 53.1093Z" fill="#FDB849"/>
<path d="M74.8061 40.4173C74.6069 39.3427 74.3687 38.3083 74.1695 37.2373C73.3206 38.3898 72.2356 39.3479 70.987 40.0476C69.7384 40.7474 68.3548 41.1727 66.9287 41.2951C66.9038 42.0145 66.8372 42.7319 66.7295 43.4437C66.871 43.7252 67.0865 43.9629 67.3529 44.1312C67.6193 44.2995 67.9265 44.392 68.2415 44.3989C68.8802 44.3811 69.5063 44.2169 70.0715 43.9189C71.8619 43.1623 73.2941 41.6899 74.8061 40.4173Z" fill="#FF465A"/>
<path d="M68.1597 26.8501C67.8954 26.6022 67.5813 26.4137 67.2383 26.297C66.8953 26.1802 66.5313 26.1381 66.1707 26.1733C65.4573 26.253 64.74 26.2931 64.0221 26.2933C63.6597 26.2929 63.3044 26.1925 62.9954 26.003C62.6865 25.8134 62.4359 25.5422 62.2713 25.2193C63.0675 25.1797 63.8631 24.9013 64.6587 24.8593C65.3916 24.7706 66.1346 24.8246 66.8469 25.0183C67.2135 25.1727 67.5301 25.4256 67.7619 25.7489C67.9936 26.0722 68.1313 26.4533 68.1597 26.8501ZM59.9259 25.3801C59.8245 25.6926 59.6482 25.9757 59.4124 26.2046C59.1766 26.4335 58.8884 26.6013 58.5729 26.6935C58.0089 26.8125 57.4374 26.8927 56.8623 26.9335C56.5547 26.9688 56.2591 27.0731 55.9973 27.2384C55.7355 27.4038 55.5144 27.6261 55.3503 27.8887C55.3104 27.5365 55.367 27.1801 55.5143 26.8577C55.6615 26.5353 55.8938 26.2591 56.1861 26.0587C56.7213 25.7188 57.3426 25.5393 57.9765 25.5415C58.5729 25.5001 59.3691 25.7359 59.9259 25.3801Z" fill="black"/>
<path d="M62.114 32.4601C62.2673 31.2298 62.0454 29.9819 61.4774 28.8799C61.5818 29.5386 61.5035 30.2134 61.251 30.8307C60.9984 31.448 60.5814 31.9842 60.0452 32.3809C60.7129 32.6054 61.4311 32.6329 62.114 32.4601Z" fill="#DD4040"/>
<path d="M74.7665 27.4465C74.3498 27.469 73.9427 27.5799 73.5723 27.7719C73.2018 27.964 72.8765 28.2326 72.6179 28.5601C72.3401 29.0032 72.1005 29.4691 71.9015 29.9527C71.7651 30.1941 71.5825 30.4062 71.364 30.5769C71.1455 30.7476 70.8955 30.8735 70.6283 30.9475C69.6737 31.0675 69.1169 30.0721 68.7191 29.1967C67.4855 26.6107 66.9683 23.6665 65.2991 21.2767C65.0065 20.7774 64.5597 20.3866 64.0259 20.1631C63.7591 20.0596 63.4641 20.0548 63.1941 20.1496C62.9241 20.2445 62.6969 20.4327 62.5535 20.6803C62.5865 20.489 62.657 20.3063 62.7611 20.1425C62.8652 19.9787 63.0008 19.8372 63.1599 19.7262C63.319 19.6151 63.4986 19.5368 63.6883 19.4956C63.8779 19.4544 64.0738 19.4512 64.2647 19.4863C64.6473 19.5716 65.0094 19.7315 65.3302 19.9569C65.651 20.1823 65.9242 20.4686 66.1343 20.7997C67.8455 23.0671 68.0045 26.0911 69.2777 28.6375C69.4763 29.0749 69.7577 29.7511 70.2725 29.6719C71.0285 29.5519 71.4263 28.7569 71.9033 28.2397C72.6179 27.4867 73.7717 27.3673 74.7665 27.4465Z" fill="black"/>
<path d="M73.9307 26.4121C74.1413 26.2176 74.3976 26.0793 74.6757 26.0097C74.9539 25.9402 75.2451 25.9418 75.5225 26.0143C75.8104 26.1516 76.0552 26.3651 76.2305 26.6316C76.4057 26.8982 76.5047 27.2076 76.5167 27.5263C76.7159 28.9189 76.1189 30.3115 75.3629 31.5049C75.1117 31.9404 74.789 32.3304 74.4083 32.6587C74.2932 32.7734 74.1567 32.8642 74.0064 32.926C73.8562 32.9877 73.6953 33.0193 73.5329 33.0187C73.0157 32.9791 72.7373 32.4217 72.5783 31.9441C72.1403 30.1123 72.4199 27.6061 73.9307 26.4121Z" fill="#F7846C"/>
<path d="M75.4027 29.9137C74.5669 30.2737 73.9303 31.2265 73.2937 31.8631C73.4256 30.9052 73.6385 29.9602 73.9303 29.0383C74.2489 28.1233 74.5273 27.2875 75.3625 26.9695C74.9733 27.4419 74.7497 28.0289 74.7259 28.6405C74.6467 29.1601 74.5669 30.1123 75.4027 29.9137Z" fill="#DD4040"/>
<path d="M53.6794 92.537C52.1929 93.6206 50.4492 94.297 48.6209 94.4994C46.7926 94.7018 44.9431 94.423 43.2556 93.6908C42.7597 92.6872 42.3342 91.6503 41.9824 90.5876C43.972 91.3832 50.1388 91.2242 52.645 89.5532C52.8442 90.5474 53.3614 91.463 53.6794 92.537Z" fill="white"/>
<path d="M83.6784 72.8826C84.1117 77.537 83.2005 82.2181 81.0528 86.37C79.8588 88.797 78.228 91.1442 75.8406 92.3376C73.9705 93.1802 71.9176 93.536 69.873 93.372C68.5767 93.4033 67.2924 93.1166 66.1326 92.5368C65.019 91.9002 63.825 90.9054 63.8652 89.5926C64.1181 90.7957 64.1718 92.0321 64.0242 93.2526C61.0689 94.5276 57.8063 94.9145 54.6348 94.3662C54.1968 94.287 53.2422 91.7406 53.043 91.3026C52.4862 90.189 52.0086 89.0352 51.5316 87.921C50.5368 85.5738 49.6218 83.1864 48.7062 80.7594C46.8762 75.9456 44.8062 71.1312 43.8126 66.0786C42.78 60.867 42.54 52.83 48.6666 50.64C52.0086 49.4466 55.5894 51.3564 58.0164 53.982C62.9502 59.3136 65.5362 63.69 69.3156 70.7718C74.0502 71.052 79.86 70.9332 83.6784 72.8826Z" fill="#FF465A"/>
<path d="M75.3232 89.3541C73.7893 89.3539 72.2815 88.9564 70.9468 88.2002C69.8127 87.4964 68.8153 86.5933 68.0026 85.5345C66.0928 83.1873 64.8226 80.402 63.7054 77.5772C62.6314 74.912 61.3582 72.962 60.4432 70.2572C59.2894 66.9152 57.937 63.3746 57.6982 58.64C57.6757 59.3629 57.5275 60.0764 57.2602 60.7484C56.8624 61.4246 56.4646 61.4648 55.7884 60.6686C55.5892 60.4286 54.2764 57.884 54.0376 57.446C54.2776 58.202 54.3976 58.9976 54.5548 59.7536C54.721 60.3215 54.7884 60.9137 54.754 61.5044C54.5944 62.4992 53.2024 61.6244 52.645 61.4246C53.3218 62.0612 54.0772 62.9366 54.5548 63.4934C55.1559 64.2022 55.7139 64.9463 56.2258 65.7218C57.4454 67.7564 58.4711 69.901 59.2894 72.1274C60.2388 74.5449 61.0883 77.0004 61.8358 79.4876C63.1486 83.9439 64.183 91.5033 64.1038 90.5877C64.5726 91.4475 65.295 92.1421 66.1726 92.5767C67.3337 93.1525 68.6167 93.4392 69.9124 93.4124C71.9568 93.5724 74.0087 93.2168 75.88 92.378C77.5979 91.4367 79.0286 90.0475 80.02 88.358C78.5411 89.0143 76.9412 89.3536 75.3232 89.3541Z" fill="#D70A32"/>
<path d="M64.8597 93.2931C64.198 93.8629 63.405 94.2594 62.5521 94.4469C59.8467 95.2425 57.0219 95.8395 54.3567 94.9269C53.6481 93.9604 53.0726 92.9032 52.6455 91.7835C56.9025 91.7037 60.6429 91.2267 64.1835 89.5557C64.3797 90.6669 64.6197 92.2587 64.8597 93.2931Z" fill="white"/>
<path d="M86.1443 79.8848C82.5625 81.8113 79.2909 84.2658 76.4393 87.1658C73.5732 90.0813 71.5636 93.7286 70.6301 97.709C74.7281 97.709 79.1051 96.8738 82.0493 94.049C83.9145 92.2094 85.2479 89.9 85.9085 87.365C86.6219 84.8186 86.1443 82.4708 86.1443 79.8848Z" fill="#14D29B"/>
<path d="M66.6495 50.2043C65.4649 48.8433 64.5107 47.2977 63.8247 45.6287C63.2529 43.9881 62.1639 42.5774 60.7215 41.6087C60.2699 41.2842 59.8442 40.9249 59.4483 40.5341C58.2153 39.5399 57.5385 36.8345 55.7883 37.5107C56.6235 38.8631 57.3795 40.2959 58.2153 41.6507C57.5057 41.0344 56.853 40.3552 56.2653 39.6215C55.6293 38.9453 54.9927 37.9907 53.9181 38.3885C54.1581 38.7863 54.3561 39.3035 54.5943 39.7013C54.5487 39.6266 54.4885 39.5619 54.4172 39.5112C54.3458 39.4604 54.265 39.4247 54.1795 39.406C54.0939 39.3874 54.0055 39.3863 53.9195 39.4029C53.8336 39.4194 53.7519 39.4531 53.6793 39.5021C54.072 40.8413 54.7976 42.0592 55.7883 43.0421C55.1115 42.4055 54.0375 41.7293 53.2419 42.4421C54.7539 43.3973 55.7481 44.7101 56.8623 45.9437C57.6692 46.8906 58.5916 47.7326 59.6079 48.4499C60.0994 48.7626 60.6188 49.029 61.1595 49.2455C61.6767 49.5245 62.2335 49.7255 62.7111 50.0417C63.0588 50.3304 63.3784 50.6512 63.6657 50.9999C64.1457 51.5567 64.5807 52.1537 65.0187 52.7507C65.8176 52.0954 66.3884 51.204 66.6495 50.2043Z" fill="#F7846C"/>
<path d="M56.3449 43.719C56.275 43.6179 56.1945 43.5246 56.1049 43.4406C55.9459 43.2816 55.9459 43.242 55.7869 43.0806C55.3905 42.6534 54.8793 42.3496 54.3145 42.2058C54.5976 42.4092 54.8637 42.6353 55.1101 42.882C55.4912 43.3365 55.9663 43.7029 56.5027 43.956C56.4631 43.9164 56.4631 43.8768 56.4235 43.836C56.4228 43.8261 56.4183 43.817 56.4111 43.8103C56.4039 43.8036 56.3944 43.7999 56.3845 43.8C56.3806 43.7694 56.3666 43.7409 56.3449 43.719ZM55.8277 41.571C55.3477 40.9344 54.5545 39.6612 54.5545 39.7008C54.4534 39.5696 54.3146 39.4725 54.1567 39.4224C54.3449 39.8972 54.5574 40.362 54.7933 40.815C54.9584 41.1743 55.1727 41.5089 55.4299 41.8092C55.7352 42.1189 56.1007 42.3627 56.5039 42.5256L56.7439 42.6456C56.4643 42.3264 56.1463 41.9688 55.8277 41.571Z" fill="#DD4040"/>
<path d="M66.4509 48.6924C69.2361 51.0396 71.3049 52.9494 73.2939 56.5698C73.1349 52.5498 74.0499 48.5334 75.1245 44.634C75.6813 42.645 76.3179 40.614 77.5911 39.0246C78.8643 37.4352 80.9727 36.279 82.9623 36.6768C84.7527 37.0368 86.1423 38.547 86.8215 40.2576C87.4043 41.9983 87.6342 43.8378 87.4977 45.6684C87.2985 52.6284 85.7469 59.4348 83.7177 66.0792C83.0811 68.1078 82.3251 70.2966 80.5347 71.4504C78.7839 72.564 76.4367 72.405 74.5665 71.4504C72.7447 70.4103 71.2233 68.9162 70.1505 67.1136C66.6489 61.8216 66.1719 57.0474 62.4705 51.5568C63.7053 50.2836 64.7397 49.2492 66.4509 48.6924Z" fill="#9778FF"/>
<path d="M64.1435 53.7854C64.8995 52.2338 66.4511 51.239 68.0027 50.6054C68.1561 50.5342 68.3171 50.4808 68.4827 50.4464C67.8461 49.8464 67.1693 49.2926 66.4535 48.6956C64.7429 49.2524 63.7079 50.2868 62.5535 51.6398C63.1109 52.4756 63.5885 53.3108 64.0259 54.1064C64.0637 53.984 64.1039 53.9048 64.1435 53.7854Z" fill="#FF465A"/>
<path d="M74.1298 58.2812C74.4898 59.1164 74.806 59.9918 75.1246 60.8672C75.403 61.5836 75.6814 62.339 75.9598 63.0554C76.1497 62.8593 76.35 62.6734 76.5598 62.4986C75.8028 60.1185 74.7182 57.8554 73.3372 55.7744V56.5706C73.2544 56.4908 73.8514 57.6446 74.1298 58.2812Z" fill="black"/>
<path d="M37.5662 39.5402C37.8297 38.742 38.1351 37.9583 38.4812 37.1924C38.6592 37.3079 38.8041 37.4677 38.9017 37.6561C38.9993 37.8445 39.0463 38.055 39.038 38.267C38.9613 38.8977 38.841 39.5224 38.678 40.1366C39.158 39.5402 39.593 38.9432 40.031 38.3462C40.2342 38.4895 40.3836 38.6966 40.4557 38.9345C40.5277 39.1724 40.5183 39.4276 40.4289 39.6596C40.5185 39.7375 40.5873 39.8365 40.6292 39.9476C40.6711 40.0587 40.6847 40.1785 40.6688 40.2962C40.6639 40.5353 40.5951 40.7687 40.4696 40.9724C40.2658 41.4078 39.9976 41.8101 39.674 42.1658C40.154 41.8478 40.5494 41.609 41.027 41.2904C41.0867 41.5441 41.0733 41.8096 40.9884 42.0561C40.9034 42.3025 40.7504 42.5199 40.547 42.683C40.2284 43.0016 39.947 43.3592 39.632 43.7174C39.872 44.4734 40.0298 45.0704 40.2686 45.9458C39.9902 46.1444 39.7112 45.9854 39.4328 45.7862C39.1687 45.5832 38.9516 45.3255 38.7962 45.0308C38.3972 44.5641 38.1723 43.9736 38.1596 43.3598C38.1596 43.2398 38.1998 43.1198 38.1596 43.0412C38.12 42.8822 37.961 42.7628 37.9196 42.6038C37.9156 42.4155 37.889 42.2284 37.8404 42.0464C37.7606 41.9264 37.6412 41.8478 37.6004 41.6864C37.5596 41.525 37.64 41.3264 37.6004 41.1296C37.5509 40.9767 37.4841 40.8299 37.4012 40.6922C37.3354 40.3004 37.393 39.8978 37.5662 39.5402Z" fill="#DD4040"/>
</g>
<defs>
<clipPath id="clip0_25_51">
<rect width="120" height="120" fill="white"/>
</clipPath>
</defs>
</svg>
