<svg width="40" height="36" viewBox="0 0 40 36" fill="none" xmlns="http://www.w3.org/2000/svg">
<path d="M29.1286 8.34242C28.3042 6.18086 27.0131 4.49437 25.2553 3.28295C23.4975 2.07153 21.3336 1.46582 18.7636 1.46582C15.4419 1.46582 12.6961 2.52878 10.5261 4.65471C8.35609 6.78064 7.16199 9.45883 6.94378 12.6893C5.31932 13.2119 3.98581 14.2036 2.94324 15.6644C1.90068 17.1252 1.37939 18.7701 1.37939 20.5992C1.37939 22.832 2.15526 24.7679 3.70698 26.4069C5.2587 28.0458 7.10138 28.8653 9.235 28.8653H10.2533C10.423 28.8653 10.5806 28.8356 10.7261 28.7763C10.8716 28.7169 10.9928 28.6337 11.0898 28.5268C11.1868 28.42 11.2656 28.2952 11.3262 28.1527C11.3868 28.0102 11.4171 27.8677 11.4171 27.7252C11.4171 27.4164 11.308 27.1491 11.0898 26.9235C10.8716 26.6978 10.5928 26.585 10.2533 26.585H9.235C7.73176 26.585 6.42856 25.9912 5.32538 24.8035C4.2222 23.6158 3.67061 22.2144 3.67061 20.5992C3.67061 19.174 4.11916 17.8913 5.01625 16.7511C5.91334 15.611 7.00439 14.934 8.28942 14.7202L9.3441 14.542L9.27137 13.4731H9.235C9.235 10.6465 10.1078 8.31867 11.8535 6.48966C13.5992 4.66065 15.9026 3.74614 18.7636 3.74614C23.1035 3.74614 25.9039 5.7533 27.1647 9.76762L27.4193 10.5515L28.2557 10.5871C29.6862 10.6109 31.0197 10.9672 32.2563 11.656C33.4928 12.3449 34.4869 13.2891 35.2385 14.4886C35.9901 15.6881 36.3659 16.9768 36.3659 18.3545C36.3659 19.0196 36.2932 19.6787 36.1477 20.3319C36.0022 20.9851 35.8022 21.6146 35.5476 22.2203C35.293 22.826 34.9657 23.3961 34.5657 23.9306C34.1656 24.465 33.7292 24.9282 33.2564 25.3201C32.7836 25.7121 32.2442 26.0209 31.638 26.2465C31.0319 26.4722 30.4015 26.585 29.7468 26.585H29.4195C29.2741 26.585 29.1286 26.6147 28.9831 26.6741C28.8376 26.7335 28.7103 26.8166 28.6012 26.9235C28.4921 27.0304 28.4073 27.1491 28.3467 27.2798C28.286 27.4104 28.2557 27.5589 28.2557 27.7252C28.2557 28.034 28.3709 28.3012 28.6012 28.5268C28.8316 28.7525 29.1043 28.8653 29.4195 28.8653C30.8258 28.8178 32.1229 28.4793 33.311 27.8499C34.499 27.2204 35.4688 26.4009 36.2204 25.3914C36.9721 24.3819 37.56 23.2714 37.9843 22.06C38.4086 20.8486 38.6208 19.6134 38.6208 18.3545C38.6208 15.7653 37.7055 13.5207 35.8749 11.6204C34.0444 9.72012 31.7956 8.62746 29.1286 8.34242ZM24.8735 26.6919C24.728 26.5256 24.5401 26.4425 24.3098 26.4425C24.0794 26.4425 23.8794 26.5256 23.7097 26.6919L21.1639 29.471V17.9982C21.1639 17.9269 21.1518 17.8497 21.1275 17.7666C21.1033 17.6834 21.079 17.6122 21.0548 17.5528C21.0305 17.4934 20.9942 17.4281 20.9457 17.3568C20.8972 17.2856 20.8487 17.2262 20.8002 17.1787C20.7517 17.1312 20.6971 17.0896 20.6365 17.054C20.5759 17.0183 20.5092 16.9827 20.4365 16.9471C20.3638 16.9114 20.291 16.8877 20.2183 16.8758C20.1456 16.8639 20.0728 16.858 20.0001 16.858C19.6606 16.858 19.3818 16.9708 19.1636 17.1965C18.9454 17.4221 18.8363 17.6894 18.8363 17.9982V29.471L16.3632 26.7632C16.1935 26.5969 15.9935 26.5078 15.7631 26.4959C15.5328 26.4841 15.3328 26.5494 15.1631 26.6919L14.8721 26.87C14.7024 27.0363 14.6175 27.2382 14.6175 27.4758C14.6175 27.7133 14.7024 27.9152 14.8721 28.0815L19.0909 32.6065V32.6421L19.3818 32.9272C19.5515 33.0934 19.7516 33.1766 19.9819 33.1766C20.2122 33.1766 20.4123 33.0934 20.582 32.9272L20.8729 32.6421V32.6065L25.1644 28.0102C25.5281 27.6539 25.5281 27.2976 25.1644 26.9413L24.8735 26.6919Z" fill="#6750A4"/>
<path d="M21.7242 25.8114V16.6416L18.2759 16.6416V25.8114H13.1035L20.0001 34.302L26.8966 25.8114H21.7242Z" fill="#6750A4"/>
</svg>
